<svg style="height:auto;width:100%" version="1.1" viewBox="0 0 1277 648" xmlns="http://www.w3.org/2000/svg">
 <defs>
  <linearGradient id="linearGradient3150" x1="676.3" x2="677" y1="334.5" y2="-19.54" gradientTransform="matrix(.8094 0 0 .809 105.1 114.3)" gradientUnits="userSpaceOnUse">
   <stop stop-color="#2898ff" offset="0"/>
   <stop stop-color="#2898ff" stop-opacity="0" offset="1"/>
  </linearGradient>
 </defs>
 <path d="m393.3 319.2v-162h516.8v323.9h-516.8z" fill="url(#linearGradient3150)" paint-order="stroke fill markers"/>
 <path d="m385.8 142.4c-4.1 0-7.424 3.322-7.424 7.421v338.7c8.2e-4 4.098 3.324 7.419 7.424 7.419h240.3l-0.5536 61.28c-0.0307 3.398-2.244 6.421-4.188 6.421h-130.8v17.13h325.5v-17.13s-87.25-0.2112-131 0c-2.548-0.9296-3.943-3.469-3.991-6.269 0.0162-20.48-0.1384-61.43-0.1384-61.43h236.6c4.1 0 7.423-3.321 7.424-7.419v-338.7c0-4.099-3.323-7.421-7.424-7.421zm7.422 14.84h516.9v323.9h-516.9z" color="#000000" fill="#1f2024" font-weight="400" overflow="visible" solid-color="#000000" style="font-feature-settings:normal;font-variant-alternates:normal;font-variant-caps:normal;font-variant-ligatures:normal;font-variant-numeric:normal;font-variant-position:normal;isolation:auto;mix-blend-mode:normal;paint-order:stroke fill markers;shape-padding:0;text-decoration-color:#000000;text-decoration-line:none;text-decoration-style:solid;text-indent:0;text-orientation:mixed;text-transform:none;white-space:normal"/>
 <g transform="matrix(.168 0 0 .1956 615.1 371)">
  <rect x="50.89" y="195.6" width="655.2" height="1119" rx="25.71" ry="25.8" fill="#fff" style="paint-order:stroke fill markers"/>
 </g>
 <g transform="matrix(.6445 0 0 .6154 20.57 257.5)" fill="#e6e6e8">
  <rect x="946" y="299.3" width="150.7" height="1.604" rx="5.518" ry=".7034" style="paint-order:stroke fill markers"/>
 </g>
 <g transform="matrix(.8094 0 0 .809 105.1 114.3)" fill="#1f2024">
  <path d="m83.66 265.3c-4.897 0-9.078 3.89-9.078 8.448v324c0 4.557 4.18 8.447 9.078 8.447h466.8c4.898 0 9.08-3.89 9.08-8.447v-324c0-4.558-4.182-8.447-9.08-8.447zm5.556 21.9h455.1v295.6h-455z" font-weight="400" overflow="visible" style="font-feature-settings:normal;font-variant-alternates:normal;font-variant-caps:normal;font-variant-ligatures:normal;font-variant-numeric:normal;font-variant-position:normal;isolation:auto;mix-blend-mode:normal;paint-order:stroke fill markers;shape-padding:0;text-decoration-color:#000000;text-decoration-line:none;text-decoration-style:solid;text-indent:0;text-orientation:mixed;text-transform:none;white-space:normal"/>
  <path d="m20.58 605.7h592.4c0.815 0 1.47 0.615 1.47 1.379v12.95c-5.291 2.672-23.69 7.941-32.83 7.941 0 0-522.8-0.074-529.4 0-6.615 0.074-33.07-5.898-33.07-8.122v-12.77c0-0.763 0.655-1.378 1.47-1.378z" style="paint-order:stroke fill markers"/>
  <g transform="matrix(7.866,0,0,8.312,105.7,279.9)">
   <g transform="matrix(1.016 0 0 1 -.606 0)" fill="#1f2024">
    <g transform="matrix(.9541 0 0 1.009 .6939 -3.299)" fill="#1f2024">
     <g transform="matrix(.9584 0 0 .9846 32 3.313)" fill="#1f2024">
      <path d="m41.16 8.934c-1.3 0-2.364 1.064-2.364 2.364v30.27c0 1.301 1.064 2.364 2.364 2.363h15.6c1.302 0 2.364-1.063 2.364-2.364v-30.27c0-1.301-1.065-2.364-2.365-2.364zm5.306 1.703h4.992c0.158 0 0.286 0.1291 0.286 0.2871s-0.128 0.286-0.286 0.286h-4.992c-0.158 0-0.286-0.128-0.286-0.286s0.129-0.286 0.286-0.2871zm-6.506 1.857h18.15l-0.044 27.18h-18.12zm9.002 27.89c0.653 0 1.307 0.5304 1.307 1.183 0 0.653-0.6543 1.181-1.307 1.181s-1.295-0.531-1.295-1.185 0.642-1.18 1.295-1.18z" fill="#1f2024"/>
     </g>
    </g>
   </g>
  </g>
 </g>
 <rect x="768" y="388.4" width="352.1" height="218.4" fill="#5790d1" style="paint-order:normal"/>
 <path d="m768.8 368.2c-7.154 8.1e-4 -12.95 5.896-12.95 13.17v228.6c-6e-5 7.273 5.799 13.17 12.95 13.17h350.5c7.155-8.1e-4 12.95-5.898 12.95-13.17v-228.6c0-7.273-5.8-13.17-12.95-13.17zm1.61 24.26h347.2v206.3h-347.2z" color="#000000" color-rendering="auto" dominant-baseline="auto" fill="#1f2024" image-rendering="auto" shape-rendering="auto" solid-color="#000000"/>
 <rect x="942.9" y="379.7" width="5.144" height="5.265" rx="3.743" ry="2.427" fill="#5e636c" style="paint-order:normal"/>
 <rect x="953.4" y="381.4" width="1.708" height="1.689" rx="3.743" ry="2.427" fill="#5e636c" style="paint-order:normal"/>
 <rect x="888" y="436.3" width="113.9" height="117.1" fill="#fcfefb" style="paint-order:normal"/>
 <path d="m959 514.6v-9.692c2.088-1.08 8.06-8.503 8.685-14.3 1.642-0.1307 4.223-1.705 4.983-7.922 0.4084-3.338-1.216-5.213-2.199-5.804 0 0 2.45-4.86 2.45-10.73 0-11.76-4.422-21.8-13.92-21.8 0 0-3.267-7.688-13.89-7.688-19.68 0-27.88 13.61-27.88 29.49 0 5.349 2.45 10.73 2.45 10.73-0.9834 0.5911-2.608 2.471-2.199 5.804 0.761 6.217 3.341 7.791 4.983 7.922 0.6264 5.799 6.598 13.22 8.685 14.3v9.692c-4.64 14.54-41.76 4.845-41.76 38.76h111.4c0-33.92-37.12-24.22-41.76-38.76z" fill="#7d838f"/>
 <path d="m914.5 578.8a8.118 8.147 0 0 1-8.04 8.147 8.118 8.147 0 0 1-8.199-7.988 8.118 8.147 0 0 1 7.878-8.309 8.118 8.147 0 0 1 8.353 7.824" fill="#59beff" style="paint-order:normal"/>
 <rect x="699.1" y="412.1" width="3.919" height="3.811" rx="3.743" ry="2.427" fill="#fff" style="paint-order:normal"/>
 <rect x="363.6" y="335.4" width="5.144" height="5.265" rx="3.743" ry="2.427" fill="#5e636c" style="paint-order:normal"/>
 <g transform="matrix(.1281 0 0 .1256 619.1 124.4)">
  <path d="m451.5 309.4h-391c-27.8 0-50.33-22.53-50.33-50.33v-116.2c0-27.8 22.53-50.33 50.33-50.33h391c27.8 0 50.33 22.53 50.33 50.33v116.2c0 27.8-22.53 50.33-50.33 50.33z" fill="#1f2024" stroke="#000"/>
  <circle cx="256" cy="200.9" r="133.5" fill="#ababab"/>
  <circle cx="256" cy="200.9" r="88.98" fill="#5e636c"/>
  <path d="m256 300.1c54.69 0 99.18-44.49 99.18-99.18s-44.49-99.18-99.18-99.18-99.18 44.49-99.18 99.18 44.49 99.18 99.18 99.18zm0-178c43.44 0 78.78 35.34 78.78 78.78s-35.34 78.78-78.78 78.78-78.78-35.34-78.78-78.78 35.34-78.78 78.78-78.78z"/>
 </g>
 <path d="m940.4 578.8a8.118 8.147 0 0 1-8.04 8.147 8.118 8.147 0 0 1-8.199-7.988 8.118 8.147 0 0 1 7.878-8.309 8.118 8.147 0 0 1 8.353 7.824" fill="#59beff" style="paint-order:normal"/>
 <path d="m964.7 578.8a8.118 8.147 0 0 1-8.04 8.147 8.118 8.147 0 0 1-8.199-7.988 8.118 8.147 0 0 1 7.878-8.309 8.118 8.147 0 0 1 8.353 7.824" fill="#59beff" style="paint-order:normal"/>
 <path d="m990.6 578.8a8.118 8.147 0 0 1-8.04 8.147 8.118 8.147 0 0 1-8.199-7.988 8.118 8.147 0 0 1 7.878-8.309 8.118 8.147 0 0 1 8.353 7.824" fill="#c74c1e" style="paint-order:normal"/>
 <path d="m177.4 346.7h368.3v239.2h-368.3z" fill="#fff" style="paint-order:normal"/>
 <path d="m177.6 346.9h129.3v109.4h-129.3z" fill="#dae1e3" style="paint-order:normal"/>
 <path d="m248.6 401.5v-6.129c1.382-0.6835 5.335-5.379 5.751-9.045 1.088-0.0827 2.796-1.078 3.299-5.011 0.2703-2.112-0.8047-3.298-1.456-3.671 0 0 1.622-3.074 1.622-6.785 0-7.442-2.928-13.79-9.219-13.79 0 0-2.163-4.863-9.195-4.863-13.03 0-18.45 8.608-18.45 18.66 0 3.383 1.622 6.785 1.622 6.785-0.6512 0.3739-1.726 1.563-1.456 3.671 0.5038 3.932 2.211 4.928 3.299 5.011 0.4147 3.668 4.368 8.365 5.751 9.045v6.129c-3.072 9.191-27.65 3.065-27.65 24.51h73.73c0-21.46-24.57-15.32-27.65-24.51z" fill="#7d838f"/>
 <path d="m177.4 455.7h129.5v130.2h-129.5z" fill="#5598ff" style="paint-order:normal"/>
 <path d="m221.4 442.6a8.118 8.147 0 0 1-8.04 8.147 8.118 8.147 0 0 1-8.199-7.988 8.118 8.147 0 0 1 7.878-8.309 8.118 8.147 0 0 1 8.353 7.824" fill="#12ad26" style="paint-order:normal"/>
 <path d="m247.3 442.6a8.118 8.147 0 0 1-8.04 8.147 8.118 8.147 0 0 1-8.199-7.988 8.118 8.147 0 0 1 7.878-8.309 8.118 8.147 0 0 1 8.353 7.824" fill="#12ad26" style="paint-order:normal"/>
 <path d="m271.6 442.6a8.118 8.147 0 0 1-8.04 8.147 8.118 8.147 0 0 1-8.199-7.988 8.118 8.147 0 0 1 7.878-8.309 8.118 8.147 0 0 1 8.353 7.824" fill="#5598ff" style="paint-order:normal"/>
 <path d="m343.3 564.6v16.83h192.7v-16.83zm1.695 1.694h189.3v13.44h-189.3z" color="#000000" color-rendering="auto" dominant-baseline="auto" fill="#55c6ff" image-rendering="auto" shape-rendering="auto" solid-color="#000000"/>
 <g transform="matrix(.03335 0 0 .0321 520.5 567.7)" fill="#55c6ff">
  <g id="XMLID_26_" fill="#55c6ff">
   <path id="XMLID_27_" d="m165 0c-95.17-3.029-179.6 91.41-163.8 185.9 9.334 80.18 83.41 147 164.8 144.1 80.15 1.223 153.8-63.59 162.6-143.3 14.78-87.84-55.49-176.4-143.2-185.7-6.744-0.8019-13.54-1.148-20.34-1.018zm0 300c-85.18 3.239-157.1-89.57-130.2-171.2 18.32-68.42 94.87-115.1 163.8-94.61 65.38 15.65 111.9 84.28 99.97 150.8-8.977 64.99-67.96 115.9-133.5 115z"/>
   <path id="XMLID_30_" d="m215.9 200.9c-34.61 0.0699-69.23-0.1409-103.8 0.1073-10.8 0.8911-17.23 15.68-9.828 23.9 5.315 6.553 12.54 11.24 19.59 15.72 28.81 16.66 67.35 14.9 94.1-5.097 5.51-4.069 11.37-8.508 14.29-14.87 3.164-9.144-4.37-20.32-14.32-19.76z"/>
   <path id="XMLID_31_" d="m115.1 147.1c8.956-8.311 7.201-24.92-3.304-31.17-6.696-4.322-15.81-3.885-22.3 0.6168-6.177 4.015-9.699 11.71-8.413 19 1.242 8.768 8.54 16.7 17.61 17.32 5.949 0.5948 12.25-1.394 16.41-5.77z"/>
   <path id="XMLID_71_" d="m229 113c-10.83-0.2827-20.7 9.734-20.02 20.6 0.2486 9.11 7.302 17.7 16.42 19.08 8.524 1.613 17.88-2.888 21.53-10.84 3.684-7.337 2.364-16.9-3.544-22.7-3.724-3.843-9.012-6.231-14.4-6.134z"/>
  </g>
 </g>
 <path d="m338.1 367.4a8.118 8.09 0 0 1-8.04 8.09 8.118 8.09 0 0 1-8.199-7.931 8.118 8.09 0 0 1 7.878-8.244 8.118 8.09 0 0 1 8.353 7.768" fill="#8299ad" style="paint-order:normal"/>
 <path d="m338.1 395.7a8.118 8.147 0 0 1-8.04 8.147 8.118 8.147 0 0 1-8.199-7.988 8.118 8.147 0 0 1 7.878-8.309 8.118 8.147 0 0 1 8.353 7.824" fill="#cc916c" style="paint-order:normal"/>
 <path d="m337.9 424a8.118 8.099 0 0 1-8.04 8.098 8.118 8.099 0 0 1-8.199-7.936 8.118 8.099 0 0 1 7.878-8.252 8.118 8.099 0 0 1 8.353 7.774" fill="#8299ad" style="paint-order:normal"/>
 <path d="m337.9 452.4a8.118 8.147 0 0 1-8.04 8.147 8.118 8.147 0 0 1-8.199-7.988 8.118 8.147 0 0 1 7.878-8.309 8.118 8.147 0 0 1 8.353 7.824" fill="#cc916c" style="paint-order:normal"/>
 <g transform="matrix(.8094 0 0 .809 105.1 114.3)" fill="#89b7ff">
  <rect x="294.3" y="302.8" width="56" height="6.875" rx="4.5" ry="4.5" style="paint-order:normal"/>
  <rect x="294.3" y="372.8" width="56" height="7" rx="4.5" ry="4.5" style="paint-order:normal"/>
  <rect x="294.3" y="337.8" width="36" height="7.398" rx="4.5" ry="4.5" style="paint-order:normal"/>
  <rect x="294.3" y="407.8" width="36" height="7" rx="4.5" ry="4.5" style="paint-order:normal"/>
 </g>
 <g transform="matrix(.8094 0 0 .809 105.1 114.3)" fill="#9297a1">
  <rect x="294.3" y="311.8" width="165.5" height="12.02" rx="4.5" ry="4.5" style="paint-order:normal"/>
  <rect x="294.3" y="346.8" width="203.3" height="12.02" rx="4.5" ry="4.5" style="paint-order:normal"/>
  <rect x="293.3" y="381.8" width="174.3" height="12.02" rx="4.5" ry="4.5" style="paint-order:normal"/>
  <rect x="294.3" y="416.8" width="189.5" height="12.73" rx="4.5" ry="4.5" style="paint-order:normal"/>
 </g>
 <g transform="matrix(.4329 0 0 -.4396 151.5 435)">
  <g fill="#fff">
   <rect transform="scale(1,-1)" x="1096" y="-437.3" width="3.09" height="256.4" rx="1.983" ry="1.952" style="paint-order:normal"/>
   <rect transform="scale(1,-1)" x="1127" y="-401.8" width="242.8" height="36.6" rx="0" ry="0" style="paint-order:normal"/>
   <rect transform="scale(1,-1)" x="1127" y="-318.9" width="243.1" height="36.82" rx="0" ry="0" style="paint-order:normal"/>
  </g>
  <rect transform="scale(1,-1)" x="1129" y="-247.6" width="102.8" height="36.82" rx="0" ry="0" fill="none" style="paint-order:normal"/>
  <rect transform="scale(1,-1)" x="1094" y="351.8" width="247.5" height="37.91" fill="#5598ff" style="paint-order:normal"/>
 </g>
 <g transform="matrix(.8094 0 0 .809 105.1 114.3)" fill="#fff" font-family="sans-serif" font-size="10.67px" letter-spacing="0px" word-spacing="0px">
  <text x="661.86621" y="275.25" style="line-height:1.25" xml:space="preserve"><tspan x="661.86621" y="275.25">Войти</tspan></text>
 </g>
 <path d="m644.8 454.3a6.796 6.624 0 0 1-6.729 6.624 6.796 6.624 0 0 1-6.861-6.494 6.796 6.624 0 0 1 6.594-6.752 6.796 6.624 0 0 1 6.991 6.361" fill="#8299ad" style="paint-order:normal"/>
 <path d="m644.6 474.8a6.796 6.624 0 0 1-6.729 6.624 6.796 6.624 0 0 1-6.861-6.494 6.796 6.624 0 0 1 6.594-6.752 6.796 6.624 0 0 1 6.991 6.361" fill="#82afad" style="paint-order:normal"/>
 <path d="m644.6 495a6.796 6.624 0 0 1-6.729 6.624 6.796 6.624 0 0 1-6.861-6.494 6.796 6.624 0 0 1 6.594-6.752 6.796 6.624 0 0 1 6.991 6.361" fill="#7488ad" style="paint-order:normal"/>
 <path d="m644.7 515.6a6.796 6.624 0 0 1-6.729 6.624 6.796 6.624 0 0 1-6.861-6.494 6.796 6.624 0 0 1 6.594-6.752 6.796 6.624 0 0 1 6.991 6.361" fill="#af99ad" style="paint-order:normal"/>
 <path d="m644.7 535.1a6.796 6.624 0 0 1-6.729 6.624 6.796 6.624 0 0 1-6.861-6.494 6.796 6.624 0 0 1 6.594-6.752 6.796 6.624 0 0 1 6.991 6.361" fill="#a587ad" style="paint-order:normal"/>
 <path d="m645 575.7a6.796 6.624 0 0 1-6.729 6.624 6.796 6.624 0 0 1-6.861-6.494 6.796 6.624 0 0 1 6.594-6.752 6.796 6.624 0 0 1 6.991 6.361" fill="#af99ad" style="paint-order:normal"/>
 <path d="m645 555.5a6.796 6.624 0 0 1-6.729 6.624 6.796 6.624 0 0 1-6.861-6.494 6.796 6.624 0 0 1 6.594-6.752 6.796 6.624 0 0 1 6.991 6.361" fill="#82b0ad" style="paint-order:normal"/>
 <g transform="matrix(.8094 0 0 .809 105.1 114.3)" fill="#89b7ff">
  <rect x="672" y="412" width="18.19" height="3.648" rx="2.25" ry="1.438" style="paint-order:normal"/>
  <rect x="692" y="412" width="18.19" height="3.648" rx="2.25" ry="1.438" style="paint-order:normal"/>
  <rect x="672" y="437" width="35" height="3.648" rx="2.25" ry="1.438" style="paint-order:normal"/>
  <rect x="672" y="462" width="43" height="3.648" rx="2.25" ry="1.438" style="paint-order:normal"/>
  <rect x="672" y="488" width="22" height="3.648" rx="2.25" ry="1.438" style="paint-order:normal"/>
  <rect x="695" y="488" width="14" height="3.648" rx="2.25" ry="1.438" style="paint-order:normal"/>
  <rect x="672" y="512" width="45.5" height="3.648" rx="2.25" ry="1.438" style="paint-order:normal"/>
  <rect x="672" y="537" width="53" height="3.648" rx="2.25" ry="1.438" style="paint-order:normal"/>
  <rect x="672" y="562" width="28" height="3.648" rx="2.25" ry="1.438" style="paint-order:normal"/>
  <rect x="702.8" y="562" width="24.19" height="3.648" rx="2.25" ry="1.438" style="paint-order:normal"/>
 </g>
 <g transform="matrix(.8094 0 0 .809 105.1 114.3)" fill="#9297a1">
  <path d="m676.8 418h71.19c2.216 0 4 1.784 4 4s-1.784 4-4 4h-71.19c-4.812 0-3.934-4.016-3.934-6.232s-3.895-1.768 3.934-1.768z" style="paint-order:normal"/>
  <path d="m677 443h71.19c2.216 0 4 1.784 4 4s-1.784 4-4 4h-71.19c-4.812 0-3.934-4.016-3.934-6.232s-3.895-1.768 3.934-1.768z" style="paint-order:normal"/>
  <path d="m677 468h71.19c2.216 0 4 1.784 4 4s-1.784 4-4 4h-71.19c-4.812 0-3.934-4.016-3.934-6.232s-3.895-1.768 3.934-1.768z" style="paint-order:normal"/>
  <path d="m677 494h71.19c2.216 0 4 1.784 4 4s-1.784 4-4 4h-71.19c-4.812 0-3.934-4.016-3.934-6.232s-3.895-1.768 3.934-1.768z" style="paint-order:normal"/>
  <path d="m677 518h71.19c2.216 0 4 1.784 4 4s-1.784 4-4 4h-71.19c-4.812 0-3.934-4.016-3.934-6.232s-3.895-1.768 3.934-1.768z" style="paint-order:normal"/>
  <path d="m677 543h71.19c2.216 0 4 1.784 4 4s-1.784 4-4 4h-71.19c-4.812 0-3.934-4.016-3.934-6.232s-3.895-1.768 3.934-1.768z" style="paint-order:normal"/>
  <path d="m677 568h71.19c2.216 0 4 1.784 4 4s-1.784 4-4 4h-71.19c-4.812 0-3.934-4.016-3.934-6.232s-3.895-1.768 3.934-1.768z" style="paint-order:normal"/>
  <g transform="matrix(.03392 0 0 .03536 652.2 387.6)">
   <g fill="#9297a1">
    <path d="m382.7 182.7h-323.6l77.21-77.21c6.764-6.76 6.764-17.73 0-24.48-6.764-6.764-17.73-6.764-24.48 0l-106.8 106.8c-6.764 6.76-6.764 17.73 0 24.48l106.8 106.8c3.381 3.383 7.812 5.072 12.24 5.072s8.861-1.689 12.24-5.072c6.764-6.76 6.764-17.73 0-24.48l-77.21-77.22h323.6c9.562 0 17.32-7.753 17.32-17.32s-7.753-17.31-17.32-17.31z" fill="#9297a1"/>
   </g>
  </g>
  <g transform="matrix(.02163 0 0 .0207 754.2 390)">
   <g fill="#9297a1">
    <path d="m98.34 320.8c47.6 56.9 104.9 101.7 170.3 133.4 24.9 11.8 58.2 25.8 95.3 28.2 2.3 0.1 4.5 0.2 6.8 0.2 24.9 0 44.9-8.6 61.2-26.3 0.1-0.1 0.3-0.3 0.4-0.5 5.8-7 12.4-13.3 19.3-20 4.7-4.5 9.5-9.2 14.1-14 21.3-22.2 21.3-50.4-0.2-71.9l-60.1-60.1c-10.2-10.6-22.4-16.2-35.2-16.2s-25.1 5.6-35.6 16.1l-35.8 35.8c-3.3-1.9-6.7-3.6-9.9-5.2-4-2-7.7-3.9-11-6-32.6-20.7-62.2-47.7-90.5-82.4-14.3-18.1-23.9-33.3-30.6-48.8 9.4-8.5 18.2-17.4 26.7-26.1 3-3.1 6.1-6.2 9.2-9.3 10.8-10.8 16.6-23.3 16.6-36s-5.7-25.2-16.6-36l-29.8-29.8c-3.5-3.5-6.8-6.9-10.2-10.4-6.6-6.8-13.5-13.8-20.3-20.1-10.3-10.1-22.4-15.4-35.2-15.4-12.7 0-24.9 5.3-35.6 15.5l-37.4 37.4c-13.6 13.6-21.3 30.1-22.9 49.2-1.9 23.9 2.5 49.3 13.9 80 17.5 47.5 43.9 91.6 83.1 138.7zm-72.6-216.6c1.2-13.3 6.3-24.4 15.9-34l37.2-37.2c5.8-5.6 12.2-8.5 18.4-8.5 6.1 0 12.3 2.9 18 8.7 6.7 6.2 13 12.7 19.8 19.6 3.4 3.5 6.9 7 10.4 10.6l29.8 29.8c6.2 6.2 9.4 12.5 9.4 18.7s-3.2 12.5-9.4 18.7c-3.1 3.1-6.2 6.3-9.3 9.4-9.3 9.4-18 18.3-27.6 26.8l-0.5 0.5c-8.3 8.3-7 16.2-5 22.2 0.1 0.3 0.2 0.5 0.3 0.8 7.7 18.5 18.4 36.1 35.1 57.1 30 37 61.6 65.7 96.4 87.8 4.3 2.8 8.9 5 13.2 7.2 4 2 7.7 3.9 11 6 0.4 0.2 0.7 0.4 1.1 0.6 3.3 1.7 6.5 2.5 9.7 2.5 8 0 13.2-5.1 14.9-6.8l37.4-37.4c5.8-5.8 12.1-8.9 18.3-8.9 7.6 0 13.8 4.7 17.7 8.9l60.3 60.2c12 12 11.9 25-0.3 37.7-4.2 4.5-8.6 8.8-13.3 13.3-7 6.8-14.3 13.8-20.9 21.7-11.5 12.4-25.2 18.2-42.9 18.2-1.7 0-3.5-0.1-5.2-0.2-32.8-2.1-63.3-14.9-86.2-25.8-62.2-30.1-116.8-72.8-162.1-127-37.3-44.9-62.4-86.7-79-131.5-10.3-27.5-14.2-49.6-12.6-69.7z" fill="#9297a1"/>
   </g>
  </g>
  <g transform="matrix(.1334 0 0 .2313 711.1 357.5)">
   <path d="m285.3 143.9c-0.7183-0.3028-1.615-0.3292-2.369-0.0691l-21.37 7.362v-4.254c0-1.566-1.205-2.939-3.01-3.72h-66.54c-1.806 0.7808-3.011 2.154-3.011 3.72v29.96c0 2.429 2.89 4.404 6.442 4.404h59.68c3.552 0 6.441-1.976 6.441-4.404v-4.252l21.37 7.362c0.3449 0.119 0.7201 0.1779 1.094 0.1779 0.4429 0 0.8854-0.0829 1.275-0.247 0.7187-0.3023 1.156-0.8383 1.156-1.415v-33.21c0-0.5771-0.4377-1.113-1.156-1.415zm-28.6 33c0 0.5852-0.7229 1.08-1.578 1.08h-59.68c-0.8559 0-1.579-0.4944-1.579-1.08v-29.96c0-0.5847 0.7228-1.079 1.579-1.079h59.68c0.8556 0 1.578 0.494 1.578 1.079zm24.89-1.075-20.03-6.901v-14.01l20.03-6.901z" fill="#9297a1"/>
  </g>
 </g>
 <g transform="translate(-30.67 -5.538)" fill="#9aa8d6">
  <g fill="#00adee">
   <path d="m258.9 57.15c-10.2 0-18.5 8.3-18.5 18.5s8.3 18.5 18.5 18.5 18.5-8.3 18.5-18.5c-0.1-10.2-8.3-18.5-18.5-18.5zm0 29.2c-5.9 0-10.7-4.8-10.7-10.7s4.8-10.7 10.7-10.7 10.7 4.8 10.7 10.7-4.8 10.7-10.7 10.7z"/>
   <path d="m682.7 20.79c-6.702 0-12.16 5.375-12.16 11.98s5.454 11.98 12.16 11.98 12.16-5.375 12.16-11.98c-0.0657-6.605-5.454-11.98-12.16-11.98zm0 18.91c-3.877 0-7.031-3.108-7.031-6.929s3.154-6.929 7.031-6.929 7.031 3.108 7.031 6.929-3.154 6.929-7.031 6.929z"/>
   <path d="m1116 302.4c-10.2 0-18.5 8.3-18.5 18.5s8.3 18.5 18.5 18.5 18.5-8.3 18.5-18.5-8.3-18.5-18.5-18.5zm0 29.2c-5.9 0-10.7-4.8-10.7-10.7s4.8-10.7 10.7-10.7 10.7 4.8 10.7 10.7c0.1 5.9-4.7 10.7-10.7 10.7z"/>
   <path d="m828.3 96.45a7.7 7.7 0 0 1-7.7 7.7 7.7 7.7 0 0 1-7.7-7.7 7.7 7.7 0 0 1 7.7-7.7 7.7 7.7 0 0 1 7.7 7.7z"/>
   <path d="m1030 295.4a7.7 7.7 0 0 1-7.7 7.7 7.7 7.7 0 0 1-7.7-7.7 7.7 7.7 0 0 1 7.7-7.7 7.7 7.7 0 0 1 7.7 7.7z"/>
   <path d="m84.7 401.7a7.7 7.7 0 0 1-7.7 7.7 7.7 7.7 0 0 1-7.7-7.7 7.7 7.7 0 0 1 7.7-7.7 7.7 7.7 0 0 1 7.7 7.7z"/>
   <path d="m1251 76.13a10.69 10.69 0 0 1-10.69 10.69 10.69 10.69 0 0 1-10.69-10.69 10.69 10.69 0 0 1 10.69-10.69 10.69 10.69 0 0 1 10.69 10.69z"/>
   <path d="m1064 188.2h-30.3c-1.6 0-3 1.3-3 3v30.3c0 1.6 1.3 3 3 3h30.3c1.6 0 3-1.3 3-3v-30.3c-0.1-1.7-1.4-3-3-3zm-5 28.3h-20.4v-20.4h20.4z"/>
   <path d="m379.5 144.4h-26.04c-1.375 0-2.579 1.078-2.579 2.488v25.13c0 1.327 1.117 2.488 2.579 2.488h26.04c1.375 0 2.579-1.078 2.579-2.488v-25.13c-0.086-1.41-1.203-2.488-2.579-2.488zm-4.298 23.47h-17.54v-16.92h17.54z"/>
   <path d="m936.9 37.75h-19.57c-1.034 0-1.938 0.7992-1.938 1.844v18.63c0 0.9837 0.8397 1.844 1.938 1.844h19.57c1.034 0 1.938-0.7992 1.938-1.844v-18.63c-0.0646-1.045-0.9043-1.844-1.938-1.844zm-3.23 17.4h-13.18v-12.54h13.18z"/>
   <path d="m566.6 84.54h-26.24c-1.386 0-2.598 1.124-2.598 2.594v26.2c0 1.384 1.126 2.594 2.598 2.594h26.24c1.385 0 2.598-1.124 2.598-2.594v-26.2c-0.0866-1.47-1.212-2.594-2.598-2.594zm-4.33 24.47h-17.67v-17.64h17.67z"/>
   <path d="m111.5 262.7h-24.57c-1.298 0-2.433 1.004-2.433 2.317v23.4c0 1.235 1.054 2.317 2.433 2.317h24.57c1.298 0 2.433-1.004 2.433-2.317v-23.4c-0.0811-1.313-1.135-2.317-2.433-2.317zm-4.055 21.85h-16.54v-15.75h16.54z"/>
   <path class="control-icon stop" d="m93.22 109.9h43.26c3.355 0 6.073 2.677 6.073 5.975v27.08c0 3.3-2.718 5.975-6.073 5.975h-2.352l4.804 9.479c0.3438 0.531 0.2619 1.223-0.1941 1.659-0.2599 0.2521-0.6002 0.3784-0.942 0.3784-0.2566 0-0.5201-0.0736-0.7499-0.2244l-20.01-11.3h-23.8c-3.355 0-6.073-2.675-6.073-5.975v-27.08c0-3.3 2.718-5.975 6.073-5.975zm34.11 23.43c2.23 0 4.038-1.779 4.038-3.973s-1.808-3.973-4.038-3.973-4.038 1.779-4.038 3.973 1.808 3.973 4.038 3.973zm-12.49 0c2.23 0 4.038-1.779 4.038-3.973s-1.808-3.973-4.038-3.973-4.038 1.779-4.038 3.973 1.808 3.973 4.038 3.973zm-12.49 0c2.23 0 4.038-1.779 4.038-3.973s-1.808-3.973-4.038-3.973-4.038 1.779-4.038 3.973 1.808 3.973 4.038 3.973z"/>
   <path class="control-icon stop" d="m456.7 35.87h-33.14c-2.57 0-4.652 2.044-4.652 4.561v20.67c0 2.519 2.082 4.561 4.652 4.561h1.802l-3.68 7.236c-0.2634 0.4053-0.2006 0.9339 0.1487 1.267 0.1991 0.1924 0.4598 0.2888 0.7216 0.2888 0.1966 0 0.3984-0.0562 0.5744-0.1713l15.33-8.622h18.23c2.57 0 4.652-2.042 4.652-4.561v-20.67c0-2.519-2.082-4.561-4.652-4.561zm-26.13 17.88c-1.708 0-3.093-1.358-3.093-3.033s1.385-3.033 3.093-3.033 3.093 1.358 3.093 3.033-1.385 3.033-3.093 3.033zm9.569 0c-1.708 0-3.093-1.358-3.093-3.033s1.385-3.033 3.093-3.033 3.093 1.358 3.093 3.033-1.385 3.033-3.093 3.033zm9.569 0c-1.708 0-3.093-1.358-3.093-3.033s1.385-3.033 3.093-3.033 3.093 1.358 3.093 3.033-1.385 3.033-3.093 3.033z"/>
   <path d="m193.5 148.7h-38.31c-0.703 0-1.269 0.566-1.269 1.269v0.601c0 0.703 0.566 1.269 1.269 1.269h38.31c0.703 0 1.269-0.566 1.269-1.269v-0.601c0-0.703-0.566-1.269-1.269-1.269z" style="paint-order:stroke fill markers"/>
   <path d="m177.8 166h-25.45c-0.703 0-1.269 0.566-1.269 1.269v0.601c0 0.703 0.566 1.269 1.269 1.269h25.45c0.703 0 1.269-0.566 1.269-1.269v-0.601c0-0.703-0.566-1.269-1.269-1.269z" style="paint-order:stroke fill markers"/>
   <path d="m143.1 166h-42.26c-0.703 0-1.269 0.566-1.269 1.269v0.601c0 0.703 0.566 1.269 1.269 1.269h42.26c0.703 0 1.269-0.566 1.269-1.269v-0.601c0-0.703-0.566-1.269-1.269-1.269z" style="paint-order:stroke fill markers"/>
   <path class="control-icon stop" d="m1255 188.5h-43.26c-3.355 0-6.073 2.677-6.073 5.975v27.08c0 3.3 2.718 5.975 6.073 5.975h2.352l-4.804 9.479c-0.3438 0.531-0.2619 1.223 0.1942 1.659 0.2598 0.2521 0.6002 0.3784 0.942 0.3784 0.2566 0 0.52-0.0736 0.7498-0.2244l20.01-11.3h23.8c3.355 0 6.073-2.675 6.073-5.975v-27.08c0-3.3-2.718-5.975-6.073-5.975zm-34.11 23.43c-2.23 0-4.038-1.779-4.038-3.973s1.808-3.973 4.038-3.973 4.038 1.779 4.038 3.973-1.808 3.973-4.038 3.973zm12.49 0c-2.23 0-4.038-1.779-4.038-3.973s1.808-3.973 4.038-3.973 4.038 1.779 4.038 3.973-1.808 3.973-4.038 3.973zm12.49 0c-2.23 0-4.038-1.779-4.038-3.973s1.808-3.973 4.038-3.973 4.038 1.779 4.038 3.973-1.808 3.973-4.038 3.973z"/>
   <path d="m1155 227.2h38.31c0.703 0 1.269 0.566 1.269 1.269v0.601c0 0.703-0.566 1.269-1.269 1.269h-38.31c-0.7031 0-1.269-0.566-1.269-1.269v-0.601c0-0.703 0.5659-1.269 1.269-1.269z" style="paint-order:stroke fill markers"/>
   <path d="m1170 244.5h25.45c0.703 0 1.269 0.566 1.269 1.269v0.601c0 0.703-0.566 1.269-1.269 1.269h-25.45c-0.7031 0-1.269-0.566-1.269-1.269v-0.601c0-0.703 0.5659-1.269 1.269-1.269z" style="paint-order:stroke fill markers"/>
   <path d="m1205 244.5h42.26c0.703 0 1.269 0.566 1.269 1.269v0.601c0 0.703-0.566 1.269-1.269 1.269h-42.26c-0.7031 0-1.269-0.566-1.269-1.269v-0.601c0-0.703 0.5659-1.269 1.269-1.269z" style="paint-order:stroke fill markers"/>
   <path class="control-icon stop" d="m1049 55.6h43.26c3.355 0 6.073 2.677 6.073 5.975v27.08c0 3.3-2.718 5.975-6.073 5.975h-2.352l4.804 9.479c0.3438 0.531 0.2619 1.223-0.1941 1.659-0.2599 0.2521-0.6002 0.3784-0.942 0.3784-0.2567 0-0.5201-0.0736-0.7499-0.2244l-20.01-11.3h-23.8c-3.355 0-6.073-2.675-6.073-5.975v-27.08c0-3.3 2.718-5.975 6.073-5.975zm34.11 23.43c2.23 0 4.038-1.779 4.038-3.973s-1.808-3.973-4.038-3.973-4.038 1.779-4.038 3.973 1.808 3.973 4.038 3.973zm-12.49 0c2.23 0 4.038-1.779 4.038-3.973s-1.808-3.973-4.038-3.973-4.038 1.779-4.038 3.973 1.808 3.973 4.038 3.973zm-12.49 0c2.23 0 4.038-1.779 4.038-3.973s-1.808-3.973-4.038-3.973-4.038 1.779-4.038 3.973 1.808 3.973 4.038 3.973z"/>
   <path d="m1150 94.35h-38.31c-0.703 0-1.269 0.566-1.269 1.269v0.601c0 0.703 0.566 1.269 1.269 1.269h38.31c0.703 0 1.269-0.566 1.269-1.269v-0.601c0-0.703-0.566-1.269-1.269-1.269z" style="paint-order:stroke fill markers"/>
   <path d="m1134 111.6h-25.45c-0.703 0-1.269 0.566-1.269 1.269v0.601c0 0.703 0.566 1.269 1.269 1.269h25.45c0.703 0 1.269-0.566 1.269-1.269v-0.601c0-0.703-0.566-1.269-1.269-1.269z" style="paint-order:stroke fill markers"/>
   <path d="m1099 111.6h-42.26c-0.7031 0-1.269 0.566-1.269 1.269v0.601c0 0.703 0.5659 1.269 1.269 1.269h42.26c0.703 0 1.269-0.566 1.269-1.269v-0.601c0-0.703-0.566-1.269-1.269-1.269z" style="paint-order:stroke fill markers"/>
  </g>
  <path d="m1218 627.7 0.3436 1.38s-0.1989 1.976-1.088 2.646c-1.554 1.172-3.578 1.002-4.237 0.9203-4.023-0.5028-5.319-0.9199-8.245-1.784-2.217-0.6542-4.351-1.599-6.413-2.646-2.033-1.033-3.891-1.944-5.84-3.566-0.8366-0.6963-1.546-1.612-1.546-2.704 0-0.8488 0.8016-2.416 0.8016-2.416 0.9344 3.057 6.402 6.665 11.74 8.725 4.292 1.658 9.198 2.218 14.49-0.5568z" fill="#fcf4ec"/>
  <path d="m1204 617.2c2.12 0.8848 3.73 1.976 5.839 2.884 4.058 2.51 7.106 4.523 8.251 8.382 0.3564 1.201-1.262 1.929-2.492 1.844-6.585 0.6147-12.41-1.732-17.71-4.506-2.102-0.9323-4.062-2.181-6.159-3.703-1.082-1.348 0.5079-4.578 0.8923-6.122 3.655 0.8296 7.87-0.189 11.38 1.22z" fill="#1879b6"/>
  <path d="m1185 624-0.2915 1.392s-1.86 2.097-2.939 1.739c-3.402-1.127-24.34-22.73-23.52-25.54 0.3693-0.7635 1.772-2.309 1.772-2.309-0.4893 3.159 8.931 10.35 12.83 14.54 3.14 3.375 6.171 10.34 12.14 10.17z" fill="#fcf4ec"/>
  <path d="m1176 606.1c3.466 4.789 7.818 11.3 8.917 17.88-0.1061 1.249-1.974 1.181-3.043 0.5653-5.619-4.393-9.821-9.479-13.4-12.97-2.002-2.443-9.638-9.792-8.867-12.3 0.6192-1.613 1.904-4.45 3.499-4.682 1.492-0.2164 3.468 2.823 5.796 5.018 2.927 2.351 2.413-0.6047 7.1 6.485z" fill="#1879b6"/>
  <path d="m1169 398c3.471-2.889 4.638-6.931 5.992-10.74 3.904 7.918 10.85 11.92 17.72 13.39 0.4101 2.043 0.8204 4.085 1.23 6.128-2.051 2.386-4.102 4.772-6.154 7.158-5.56-1.843-11.12-3.688-16.68-5.531-0.7017-3.471-1.404-6.941-2.105-10.41z" fill="#fbab79"/>
  <path d="m1208 413c1.383 11.64 2.628 23.31 4.335 34.92 0.6771 4.733 1.157 9.498 2.321 14.15 1.237 6.03 2.735 12.03 3.677 18.1 0.1273 2.369 0.2194 4.736-0.2285 7.079-0.1418 1.618-1.179 2.982-1.732 4.483-0.4699-3.454-0.426-7.004-1.504-10.34-1.384-5.391-2.947-10.75-4.22-16.16-1.264-11.06-2.604-22.13-3.822-33.2 0.3907-6.341 0.7813-12.68 1.172-19.02z" fill="#fcbd97"/>
  <path d="m1216 483.9c-2.415-13.15-5.791-26.16-6.482-39.56-1.11-10.45-0.2623-20.97-1.081-31.43-0.764-4.046-14.09-14.27-16.01-12.32-1.521 1.873 2.026 7.83-5.052 8.81-5.92 1.256-9.711-2.902-13.86-5.763-3.992-3.675-4.659-9.258-9.096-3.633-5.472 3.925-9.445 9.286-11.31 15.8-1.741 5.328-0.6854 10.66 1.445 15.68 1.8 5.606 5.218 10.5 7.144 16.09 2.521 5.647 2.252 11.66 4.724 17.89-0.2239 8.94 1.338 17.88 1.83 26.81 1.773 3.242 5.21 2.349 8.009 2.255 26.12 6.031 28.35-6.528 39.76-10.61z" fill="#0094f2"/>
  <path d="m1174 508.7c0.1284 4.527-0.5068 9.143 0.9592 13.52 2.612 11.36 4.298 23.14 6.126 34.65 1.264 6.742 1.168 13.28 2.742 20 1.819 10.23 3.228 20.55 5.317 30.73l2.35 9.838c4.427 0.0542 9.665-0.2169 14.09-0.1627-0.9683-12.61-3.183-24.87-3.854-37.48-0.3212-12.05-1.078-24.09-1.105-36.14 0.088-4.85 0.1755-9.7 0.2633-14.55 2.353-1.718 2.45 1.097 3.093 2.813 1.229 3.89 2.706 7.707 3.709 11.67-9.775 11.54-18.84 21.17-28.29 31.45-5.807 6.532-11.87 12.85-17.38 19.64l12.95 9.599c16.98-17.72 34.68-34.78 51.79-52.38 2.307-4.805 1.878-5.718 2.046-6.632 0.2512-2.563-0.1013-5.67-0.8825-8.463-1.953-9.277-4.8-18.35-7.121-27.55-1.1-3.362-2.834-6.617-3.545-10.04 0.1232-5.548-0.4621-9.719-0.9885-15.26-4.074 1.981-10.22 4.485-12.48 5.72-4.253 2.419-9.28 1.939-13.94 3.091-6.192 0.6721-13.7 0.7337-19.9 1.359 2.032 5.132 3.587 9.848 4.044 14.59z" fill="#3d3d3b"/>
  <path d="m1235 421.5 5.146 6.328-23.34 11.12-1.565-7.497z" color="#000000" fill="#fff" style="-inkscape-stroke:none"/>
  <path d="m1235 421c-0.1519-0.0599-0.3215-0.0563-0.4707 0.01l-19.4 9.754c-0.262 0.117-0.4068 0.4009-0.3477 0.6816l0.6393 7.672c0.077 0.3719 0.4719 0.5834 0.8242 0.4414l23.92-11.06c0.3167-0.1277 0.4666-0.4908 0.3321-0.8047l-5.163-6.365c-0.065-0.1495-0.1862-0.267-0.3379-0.3262zm-0.3609 1.593 3.836 4.962-22.01 10.6-0.3893-6.479z" color="#000000" fill="#1f2024" style="-inkscape-stroke:none"/>
  <path d="m1176 430.6c-6.154 2.657-12.31 5.315-18.46 7.972 3.443 5.341 6.374 11.06 10.15 16.16 3.357 3.592 6.399 7.869 10.6 10.37 2.98-0.2084 6.187 0.6729 9.015-0.2738 9.986-4.644 20.14-8.983 29.67-14.54 2.473-0.5906 5.521-0.0379 7.042-2.52 1.523-1.596 3.581-2.905 3.455-5.381-0.1536-2.492 1.689-3.711 3.564-4.91 1.721-1.171 3.483-2.307 4.077-4.435-1.278-2.562-3.3-1.242-5.25-0.2961-4.254 1.78-8.632 3.563-13.21 4.2 1.444-2.601 3.44-7.279 2.105-8.135-2.523-0.8905-3.794-2.1e-4 -3.797 2.691-0.7699 4.11-4.39 7.098-4.383 11.42-1.07 1.337-4.046 0.7308-5.859 1.311-6.687 1.213-13.32 2.805-20.13 3.12-2.828-5.603-5.69-11.19-8.583-16.76z" fill="#fcbd97"/>
  <path d="m1192 400.7c2.817-2.452 2.503-5.15 4.124-6.995-0.2957-2.432 1.432-3.882 1.756-5.988l4.178-15.78c1.512-2.005 4.232-3.348 4.756-5.896 0.4364-2.532 1.864-5.123 0.7142-7.642-0.2919-2.331-1.438-4.199-3.386-5.493-1.357-2.098-3.661-1.702-5.825-1.666-3.676-0.0181-7.378-0.2034-11-0.8464-1.976-1.003-3.973-0.5965-5.91 0.2439-2.708 0.4793-4.302 2.886-6.338 4.51-2.366 1.783-3.463 4.617-5.094 7.006-0.1449 2.889 0.3954 6.132 1.027 9.052 1.242 3.745 2.484 7.489 3.727 11.24-1.557 2.783-0.3325 5.989 1.451 8.338 2.194 3.281 5.169 6.596 8.983 7.757 1.228 0.9063 3.045 1.266 6.838 2.173z" fill="#763204"/>
  <path d="m1202 371.8c-1.863 4.908-1.027 14.74-3.925 14.96-0.5095 1.403-0.2621 2.484-1.031 1.318-2.33-2.291-4.425-2.665-7.196-2.097-1.253 0.335-2.514 0.7606-3.559 1.552-9.141 2.212-8.448-6.686-8.404-11.4-0.062-2.816 0.5167-5.532 1.732-8.179 1.875-0.3286 3.939 0.8543 5.677-0.2995 1.046-0.7933 1.039-3.33 2.783-2.864 3.157-0.3178 5.853 0.9894 8.059 3.143 2.041 1.835 3.594 2.764 5.863 3.873z" fill="#fcbd97"/>
  <path d="m1176 371.1c-0.4787 0.4088-1.249 0.4675-1.534 1.086-0.3344 5.267 0.111 7.598 0.5224 10.15-1.069 0.4536-2.432-1.292-3.36-1.716-1.307-2.842-1.982-5.258-0.972-9.433 0.6422-2.658 4.154-2.289 5.345-0.0814z" fill="#fbb07d"/>
  <path d="m231.4 291.4c28.38 8.934 51.74 1.616 80.12 2.125 9.422 0.1986 18.12-1.291 27.88-1.75-6.948 8.952-8.244 16.18-20.75 25.75-3.726 2.554-11.58 6.271-16 7.375l-27.62 2.625c-14.93-0.7043-30.65 1.196-43.38-6.5-5.424-3.612-10.28-7.256-13.88-12.5z" fill="#3d5d7e"/>
  <path d="m302.2 332.6-0.4374-9.422c-3.687-0.906-8.659 1.888-12.48 1.405-3.151-0.398-4.402-0.0178-7.49 0.1457l-5.47 3.247c-1.481-6e-3 9.575 4.195 18.79 4.525 2.056 0.0413 5.07 0.502 7.088 0.0984z" fill="#2a7dff"/>
  <g transform="translate(-236.4 67)">
   <path d="m523.1 257.5-2.695 4.767c-1.459-2.548-0.763-2.374-2.188-4.547l-2.418 3.531" fill="none"/>
   <path d="m512.3 250.8-11.79-4.436-0.9575 5.384 13.15 7.268z" fill="#fbab79"/>
   <path d="m518.6 248-15.65 5.946 3.762 8.13 14.26-3.63z" fill="#fbab79"/>
  </g>
  <path d="m252.5 305.4 11.5 6.521-0.709 8.342c-7.971 0.3046-10.19 0.7241-15.11 1.68l-6.833 1.133c-16.37-5.54-35.8-17.68-37.75-25.91-3.287-19.76 13.67-12.35 26.29-6.983 9.034 4.274 16.69 11.55 22.62 15.22zm80.95-20.67c6.667-1.098 12.08 4.075 8.019 11.2-6.331 10.41-12.87 13.65-23.19 19.14-9.996 5.713-21.24 8.622-33.17 11.43l-3.13-12.65 19.39-14.85c16.16-11.24 29.16-14.07 32.08-14.28z" fill="#476c92"/>
  <path d="m247 304.1 52.88 0.1432 8.859-15.51c-2.635 0.833-6.201 1.85-8.169 2.087-10.26 1.405-42.88 1.694-53.72 0.8333-2.248-0.4175-7.178-1.278-11.34-2.366z" fill="#b5b7b9"/>
  <g transform="translate(-236.4 67)">
   <path d="m483.1 255 1.664 11.71c4.555 0.0934 9.241-0.5026 13.91-0.9795 3.847-0.393 7.489-1.817 11.19-2.898l-6.135-10.6c0.0134-0.0804-8.657 0.4446-13.3 1.424-2.488 0.5254-7.336 1.345-7.336 1.345z" fill="#2a7dff"/>
   <path d="m489.6 256.2 4.419 6.092 1.587-7.122 6.35 6.092" fill="none"/>
   <path d="m500.1 254.7-2.445 6.392-5.32-5.02-1.974 7.379" fill="none"/>
   <path d="m483.1 255c-3.574 0.3425-8.603 1.211-9.663 4.258-0.8074 2.736-0.7299 5.463 1.331 6.53 3.167 1.64 9.092 1.091 9.996 0.9167z" fill="#fff"/>
   <path d="m538.6 265.6c2.925 0.3872 6.634 0.4912 7.73-1.687 0.8667-1.982 1.207-4.735-0.3819-5.943-2.441-1.856-7.039-1.763-7.786-1.792z" fill="#fff"/>
   <path d="m495.8 158 3.811-1.121 18.59-0.4357 4.824 0.4476c-0.7699 2.909-2.304 5.053-3.755 7.281-2.466 3.344-6.423 4.301-9.068 4.486-3.042-0.601-4.732-0.5169-8.462-3.354-2.952-1.869-4.351-4.643-5.943-7.304z" fill="#fbab79"/>
  </g>
  <path d="m259.4 225c-6.609 0.5531-15.16 1.326-21.77 5.311-10.38 16.73-12.51 31.39-12.74 48.49 3.095 5.634 3.262 7.162 6.258 8.379 6.644 2.979 13.26 3.13 16.22 4.267-8.564-32.65-3.831-48.4 0 0l51.33-1.261c1.871-42.69 6.492-41.46 1.204 0.2629 5.039-0.8357 13.36-3.209 17.53-6.743 1.908-1.617 4.574-3.377 5.069-5.37 0.605-6.489-0.1236-6.754-0.4056-9.104-1.73-11.89-4.807-23.08-10.41-33.68-5.253-5.321-11.51-10.18-25.06-11.67-5.178 17.03-21.15 13.52-27.23 1.109z" fill="#0076db"/>
  <path d="m242 268.5 5.918 32.46 51.16 0.1005 3.332-33.59z" fill="#c8c9cb"/>
  <path d="m260.2 212.1-3.27-2.828c-2.232-5.741-1.717-11.31-1.503-17.32 0.937-0.9641 0.8203-1.752 1.159-2.426 0.7826-1.557 1.311-2.501 3.702-3.584 3.833-4.08 9.961-5.754 18.12-4.773 10.84 3.127 10.97 8.1 11.58 18.21-1.486 7.15-0.9204 11.74-4.861 14.85z" fill="#452712"/>
  <path d="m269.1 200.9c5.536 0.6213 11.07 0.75 16.62 0.75 1.301 0.3857 0.95 3.456 1 5.875-1.141 5.839-2.696 12.68-4.635 17.03-0.9072 1.876-3.25 3.449-5.49 4.158-11.02 0.7625-13.36-5.094-15.56-13.38-2.023-5.255-2.126-8.641-1.188-15.31 2.706-1.573 6.341 0.2746 9.25 0.875z" fill="#f19960"/>
 </g>
</svg>
