<svg version="1.1" viewBox="0 0 299.9 165.1" xmlns="http://www.w3.org/2000/svg">
 <g transform="translate(348.8,-70.82)">
  <path d="m-348.7 70.84 299.8 0.03609-0.0053 165-299.8 0.0146z" fill="#0da6e1" style="paint-order:markers stroke fill"/>
  <path d="m-295.8 84.24c-2.378 0-4.389 2.002-4.389 4.369v126.4c0 2.368 2.01 4.369 4.389 4.369h193.8c2.378 0 4.389-2.002 4.389-4.369v-126.4c0-2.368-2.01-4.369-4.389-4.369zm1.701 8.857 190.2-0.06571-0.0115 118.4-190-0.1663z" color="#000000" color-rendering="auto" dominant-baseline="auto" fill="#1f2024" image-rendering="auto" shape-rendering="auto" solid-color="#000000" style="font-feature-settings:normal;font-variant-alternates:normal;font-variant-caps:normal;font-variant-ligatures:normal;font-variant-numeric:normal;font-variant-position:normal;isolation:auto;mix-blend-mode:normal;paint-order:markers stroke fill;shape-padding:0;text-decoration-color:#000000;text-decoration-line:none;text-decoration-style:solid;text-indent:0;text-orientation:mixed;text-transform:none;white-space:normal"/>
  <path d="m-322.4 219.3h246.8c0.7443 0 1.344 0.6308 1.344 1.414v4.532c0 0.7836-21.04 1.281-21.79 1.281l-207.1-0.1573c-0.7443-5.6e-4 -20.66-0.3399-20.66-1.123v-4.532c0-0.7836 0.5992-1.414 1.344-1.414z" fill="#1f2024" style="paint-order:markers stroke fill"/>
  <g fill="none">
   <path d="m-348.3 235.5c-0.3142-0.183-0.3307-4.302-0.3307-82.29 0-81.03 5e-3 -82.1 0.3662-82.3 0.2522-0.135 46.86-0.1812 149.7-0.1484 132.5 0.04224 149.3 0.07956 149.5 0.3311 0.1122 0.1775 0.1803 30.88 0.1821 82.15 0.0026 74.17-0.02487 81.89-0.2941 82.16-0.2695 0.2695-14.11 0.2964-149.5 0.2912-101-4e-3 -149.4-0.068-149.6-0.1984z" style="paint-order:markers stroke fill"/>
   <rect x="-275.1" y="101.3" width="150.3" height="98.76" rx="0" ry="0" stroke-width=".2772" style="paint-order:stroke fill markers"/>
   <path d="m-275.1 106.3h150.3v6.454h-150.3z" stroke-width=".2772" style="paint-order:stroke fill markers"/>
  </g>
 </g>
 <g transform="matrix(.4175 0 0 .4 448 -121.4)">
  <path d="m-941.9 359.1h455v295.6h-455z" fill="#fff" stroke="#000" stroke-linecap="round" stroke-linejoin="round" stroke-width=".4552" style="paint-order:normal"/>
  <path d="m-941.7 359.4h159.8v135.2h-159.8z" fill="#dae1e3" style="paint-order:normal"/>
  <path d="m-854 426.8v-7.576c1.708-0.8448 6.592-6.648 7.105-11.18 1.344-0.1022 3.454-1.333 4.076-6.194 0.334-2.61-0.9942-4.076-1.799-4.538 0 0 2.004-3.8 2.004-8.387 0-9.198-3.617-17.05-11.39-17.05 0 0-2.672-6.011-11.36-6.011-16.1 0-22.8 10.64-22.8 23.06 0 4.182 2.004 8.387 2.004 8.387-0.8046 0.4622-2.133 1.932-1.799 4.538 0.6224 4.86 2.732 6.091 4.076 6.194 0.5124 4.534 5.397 10.34 7.105 11.18v7.576c-3.795 11.36-34.16 3.788-34.16 30.3h91.09c0-26.52-30.36-18.94-34.16-30.3z" fill="#7d838f" stroke-width="3.792"/>
  <path d="m-941.9 493.8h160v160.9h-160z" fill="#5598ff" style="paint-order:normal"/>
  <path d="m-887.6 477.7a10.03 10.07 0 0 1-9.933 10.07 10.03 10.07 0 0 1-10.13-9.873 10.03 10.07 0 0 1 9.733-10.27 10.03 10.07 0 0 1 10.32 9.671" fill="#12ad26" style="paint-order:normal"/>
  <path d="m-855.6 477.7a10.03 10.07 0 0 1-9.933 10.07 10.03 10.07 0 0 1-10.13-9.873 10.03 10.07 0 0 1 9.733-10.27 10.03 10.07 0 0 1 10.32 9.671" fill="#12ad26" style="paint-order:normal"/>
  <path d="m-737 628.4v20.8h238.1v-20.8zm2.094 2.094h233.9v16.61h-233.9z" color="#000000" color-rendering="auto" dominant-baseline="auto" fill="#55c6ff" image-rendering="auto" shape-rendering="auto" solid-color="#000000" style="font-feature-settings:normal;font-variant-alternates:normal;font-variant-caps:normal;font-variant-ligatures:normal;font-variant-numeric:normal;font-variant-position:normal;isolation:auto;mix-blend-mode:normal;paint-order:normal;shape-padding:0;text-decoration-color:#000000;text-decoration-line:none;text-decoration-style:solid;text-indent:0;text-orientation:mixed;text-transform:none;white-space:normal"/>
  <g transform="matrix(.0412 0 0 .03968 513.2 560.4)" fill="#55c6ff">
   <g id="XMLID_26_" fill="#55c6ff">
    <path id="XMLID_27_" d="m-24864 1812c-95.17-3.029-179.6 91.41-163.8 185.9 9.335 80.18 83.41 147 164.8 144.1 80.15 1.223 153.8-63.59 162.6-143.3 14.78-87.84-55.49-176.4-143.2-185.7-6.744-0.8019-13.54-1.148-20.34-1.018zm0 300c-85.18 3.239-157.1-89.57-130.2-171.2 18.32-68.42 94.87-115.1 163.8-94.61 65.38 15.65 111.9 84.28 99.97 150.8-8.977 64.99-67.96 115.9-133.5 115z"/>
    <path id="XMLID_30_" d="m-24813 2012c-34.61 0.07-69.23-0.1409-103.8 0.1072-10.8 0.8912-17.23 15.68-9.828 23.9 5.315 6.553 12.54 11.24 19.59 15.72 28.81 16.66 67.35 14.9 94.1-5.097 5.51-4.069 11.37-8.508 14.29-14.87 3.164-9.144-4.37-20.32-14.32-19.76z"/>
    <path id="XMLID_31_" d="m-24914 1959c8.956-8.311 7.201-24.92-3.304-31.17-6.696-4.322-15.81-3.885-22.3 0.6167-6.177 4.015-9.699 11.71-8.413 19 1.242 8.768 8.54 16.7 17.61 17.32 5.949 0.5948 12.25-1.394 16.41-5.77z"/>
    <path id="XMLID_71_" d="m-24800 1925c-10.83-0.2827-20.7 9.734-20.02 20.6 0.249 9.11 7.302 17.7 16.42 19.08 8.524 1.613 17.88-2.888 21.53-10.84 3.684-7.337 2.364-16.9-3.544-22.7-3.724-3.843-9.012-6.231-14.4-6.134z"/>
   </g>
  </g>
  <path d="m-743.4 384.7a10.03 10 0 0 1-9.933 10 10.03 10 0 0 1-10.13-9.803 10.03 10 0 0 1 9.733-10.19 10.03 10 0 0 1 10.32 9.602" fill="#8299ad" style="paint-order:normal"/>
  <path d="m-743.4 419.7a10.03 10.07 0 0 1-9.933 10.07 10.03 10.07 0 0 1-10.13-9.873 10.03 10.07 0 0 1 9.733-10.27 10.03 10.07 0 0 1 10.32 9.671" fill="#cc916c" style="paint-order:normal"/>
  <path d="m-743.7 454.7a10.03 10.01 0 0 1-9.933 10.01 10.03 10.01 0 0 1-10.13-9.809 10.03 10.01 0 0 1 9.733-10.2 10.03 10.01 0 0 1 10.32 9.609" fill="#8299ad" style="paint-order:normal"/>
  <path d="m-743.7 489.7a10.03 10.07 0 0 1-9.933 10.07 10.03 10.07 0 0 1-10.13-9.873 10.03 10.07 0 0 1 9.733-10.27 10.03 10.07 0 0 1 10.32 9.671" fill="#cc916c" style="paint-order:normal"/>
  <g fill="#89b7ff">
   <rect x="-736.9" y="374.7" width="56" height="6.875" rx="2.852" ry="2.976" style="paint-order:normal"/>
   <rect x="-736.9" y="444.7" width="56" height="7" rx="2.852" ry="2.976" style="paint-order:normal"/>
   <rect x="-736.9" y="409.7" width="36" height="7.398" rx="2.852" ry="2.976" style="paint-order:normal"/>
   <rect x="-736.9" y="479.7" width="36" height="7" rx="2.852" ry="2.976" style="paint-order:normal"/>
  </g>
  <g fill="#9297a1">
   <rect x="-736.9" y="383.7" width="165.5" height="12.02" rx="2.852" ry="2.976" style="paint-order:normal"/>
   <rect x="-736.9" y="418.7" width="203.3" height="12.02" rx="2.852" ry="2.976" style="paint-order:normal"/>
   <rect x="-737.9" y="453.7" width="174.3" height="12.02" rx="2.852" ry="2.976" style="paint-order:normal"/>
   <rect x="-736.9" y="488.7" width="189.5" height="12.73" rx="2.852" ry="2.976" style="paint-order:normal"/>
  </g>
  <path d="m-820.1 478.1a10.03 10.07 0 0 1-9.933 10.07 10.03 10.07 0 0 1-10.13-9.873 10.03 10.07 0 0 1 9.733-10.27 10.03 10.07 0 0 1 10.32 9.671" fill="#6284ff" style="paint-order:normal"/>
 </g>
 <g stroke-width=".4087">
  <path d="m137.6 87.15a4.188 4.003 0 0 1-4.147 4.003 4.188 4.003 0 0 1-4.228-3.924 4.188 4.003 0 0 1 4.064-4.08 4.188 4.003 0 0 1 4.308 3.844" fill="#8299ad" style="paint-order:normal"/>
  <path d="m137.6 101.2a4.188 4.029 0 0 1-4.147 4.029 4.188 4.029 0 0 1-4.228-3.95 4.188 4.029 0 0 1 4.064-4.107 4.188 4.029 0 0 1 4.308 3.869" fill="#cc916c" style="paint-order:normal"/>
  <rect x="140.4" y="83.15" width="23.38" height="2.8" rx="1.191" ry="1.191" fill="#89b7ff" style="paint-order:normal"/>
  <rect x="140.4" y="97.15" width="15.03" height="2.8" rx="1.191" ry="1.191" fill="#89b7ff" style="paint-order:normal"/>
  <rect x="140" y="86.74" width="72.78" height="4.81" rx="1.191" ry="1.191" fill="#9297a1" style="paint-order:normal"/>
  <rect x="140.4" y="100.8" width="79.13" height="5.092" rx="1.191" ry="1.191" fill="#9297a1" style="paint-order:normal"/>
 </g>
</svg>
