<svg width="140.7" height="160.7" version="1.1" viewBox="0 0 139.7 156.1" xmlns="http://www.w3.org/2000/svg">
 <g transform="translate(-1.87,-1.727)">
  <path d="m1.961 0.01274h139.6v159.5h-139.6z" fill="#fff" stroke-linecap="round" stroke-linejoin="round" stroke-width="8.004"/>
  <rect x="24.55" y="19.94" width="93.7" height="95.14" rx="5.211" ry="5.222" clip-rule="evenodd" fill="#e3e3e3" fill-rule="evenodd" image-rendering="optimizeQuality" shape-rendering="geometricPrecision" stroke-width=".9659" style="paint-order:stroke fill markers"/>
  <g transform="matrix(1.616 0 0 1.613 -101.4 42.99)" stroke-width="2.642">
   <path d="m90.48-3.332c-1.757 0-3.193 1.439-3.193 3.195v5.711c0 1.757 1.437 3.195 3.193 3.195h33.72c1.757 0 3.195-1.439 3.195-3.195v-5.711c0-1.757-1.439-3.195-3.195-3.195zm0 1.551h33.72c0.9252 0 1.646 0.7194 1.646 1.645v5.711c0 0.9251-0.7213 1.645-1.646 1.645h-33.72c-0.9251 0-1.645-0.7194-1.645-1.645v-5.711c0-0.9251 0.7194-1.645 1.645-1.645z" color="#000000" style="-inkscape-stroke:none;paint-order:markers stroke fill"/>
   <path d="m90.48-2.556h33.72c1.341 0 2.42 1.079 2.42 2.42v5.71c0 1.341-1.079 2.42-2.42 2.42h-33.72c-1.341 0-2.42-1.079-2.42-2.42v-5.71c0-1.341 1.079-2.42 2.42-2.42z" color="#000000" fill="#fff" stroke-width="1.549" style="-inkscape-stroke:none;paint-order:markers stroke fill"/>
   <path d="m90.38 8.361c-1.705 0-3.1 1.397-3.1 3.102v5.898c0 1.705 1.395 3.102 3.1 3.102h33.91c1.705 0 3.102-1.397 3.102-3.102v-5.898c0-1.705-1.397-3.102-3.102-3.102h-1.801zm0 1.551h33.91c0.8733 0 1.553 0.6775 1.553 1.551v5.898c0 0.8733-0.6795 1.551-1.553 1.551h-33.91c-0.8733 0-1.551-0.6775-1.551-1.551v-5.898c0-0.8733 0.6775-1.551 1.551-1.551z" color="#000000" style="-inkscape-stroke:none;paint-order:markers stroke fill"/>
   <path d="m90.38 9.137h33.91c1.289 0 2.327 1.038 2.327 2.327v5.897c0 1.289-1.038 2.327-2.327 2.327h-33.91c-1.289 0-2.327-1.038-2.327-2.327v-5.897c0-1.289 1.038-2.327 2.327-2.327z" color="#000000" fill="#1753ff" stroke-width="1.549" style="-inkscape-stroke:none;paint-order:markers stroke fill"/>
   <path d="m90.24 20.05c-1.627 0-2.961 1.334-2.961 2.961v6.178c0 1.627 1.334 2.961 2.961 2.961h34.19c1.627 0 2.961-1.334 2.961-2.961v-6.178c0-1.627-1.334-2.961-2.961-2.961zm0 1.551h34.19c0.7955 0 1.412 0.6147 1.412 1.41v6.178c0 0.7955-0.6166 1.412-1.412 1.412h-34.19c-0.7955 0-1.412-0.6166-1.412-1.412v-6.178c0-0.7955 0.6166-1.41 1.412-1.41z" color="#000000" style="-inkscape-stroke:none;paint-order:markers stroke fill"/>
   <path d="m90.24 20.83h34.19c1.211 0 2.186 0.9751 2.186 2.186v6.178c0 1.211-0.9751 2.186-2.186 2.186h-34.19c-1.211 0-2.186-0.9751-2.186-2.186v-6.178c0-1.211 0.9751-2.186 2.186-2.186z" color="#000000" fill="#f00000" stroke-width="1.549" style="-inkscape-stroke:none;paint-order:markers stroke fill"/>
  </g>
  <g transform="matrix(1.474 0 0 1.711 -101.3 43.65)" style="paint-order:stroke fill markers">
   <path d="m121.1-5.256c-4.127-0.1919-8.276 0.7024-11.92 2.387-2.735 1.266-5.671 3.328-6.969 6.746-0.8997 2.369-0.3606 4.704 0.4902 6.566 0.9782 2.141 2.62 3.552 4.107 4.619 3.18 2.282 6.9 3.829 10.58 4.656l-0.0957-0.02539c0.8431 0.2216 1.444 0.372 1.832 0.5215-2.938 0.6984-6.276-0.1755-9.109-2.205-0.034-0.02421-0.0685-0.04765-0.1035-0.07031 0.0785 0.05105-0.1926-0.2194-0.8184-0.6777-0.6257-0.4583-2.113-1.091-3.502-0.6875-1.191 0.3462-2.01 1.438-2.01 2.678v7.324c-1.3e-4 1.091 0.6355 2.081 1.627 2.535 2.244 1.028 4.652 1.894 7.23 2.297 0.0267 0.0037 0.0533 0.0069 0.0801 0.0098 4.557 0.5797 10.11 0.6905 14.8-2.691 0.0625-0.045 0.1231-0.09256 0.1816-0.1426 3.104-2.655 6.078-5.786 6.162-10.17 0.0657-3.413-2.307-5.249-3.41-6.496-1.203-1.359-2.669-2.484-4.252-3.336-1.78-0.9572-3.551-1.347-4.986-1.707-1.535-0.45-2.659-0.7049-3.578-0.9688 2.027-0.4549 4.379 0.03972 6.586 1.254 0.1665 0.0912 0.3419 0.1651 0.5234 0.2207-0.3629-0.1117-0.0661 0.0074 0.5508 0.5176 0.6169 0.5102 2.005 1.524 3.812 1.223 1.344-0.2248 2.328-1.388 2.328-2.75v-6.549c1.6e-4 -0.2691-0.0387-0.5369-0.1152-0.7949-0.3084-1.035-1.078-1.89-1.781-2.344-0.7031-0.4541-1.335-0.6359-1.861-0.7715-1.053-0.2711-1.858-0.4741-1.664-0.377-0.1955-0.09878-0.402-0.1742-0.6152-0.2246-1.351-0.3161-2.724-0.5005-4.1-0.5645z" color="#000000" fill="#fff" style="-inkscape-stroke:none"/>
   <path d="m130.8 18.36c-0.0596 3.096-2.258 5.601-5.187 8.107-3.804 2.743-8.508 2.736-12.82 2.188-2.234-0.3489-4.407-1.118-6.5-2.077v-7.324c0.8373-0.2433 1.357 0.593 2.021 1.025 3.508 2.513 7.887 3.743 11.94 2.553 1.162-0.3735 2.331-1.579 1.959-3.118-0.5993-2.034-2.724-2.303-4.288-2.714-3.336-0.7502-6.744-2.178-9.565-4.201-1.291-0.9264-2.543-2.079-3.198-3.513-0.655-1.434-0.9455-3.032-0.4193-4.418 0.8926-2.351 3.224-4.136 5.534-5.205 4.314-1.997 9.522-2.734 14.21-1.637 1.163 0.5838 3.462 0.3793 3.884 1.797v6.548c-1.215 0.2027-1.959-1.308-3.083-1.654-3.09-1.7-6.811-2.524-10.1-1.095-1.388 0.5151-2.162 2.773-0.9272 3.971 1.766 1.332 3.972 1.384 5.968 1.978 1.461 0.3677 3.021 0.7405 4.371 1.467 1.302 0.7006 2.531 1.649 3.484 2.727 1.206 1.363 2.745 2.872 2.712 4.595z" color="#000000" fill="#00aff0" stroke-width="5.576" style="-inkscape-stroke:none"/>
  </g>
  <g transform="matrix(.295 0 0 .3013 67.52 55.18)" clip-rule="evenodd" fill="#fff" fill-rule="evenodd" image-rendering="optimizeQuality" shape-rendering="geometricPrecision" stroke-linejoin="round" stroke-width="14.97" style="paint-order:stroke fill markers">
   <path d="m63.75 85.81-13.71 13.56-33.47-12.16 0.2962 35.58 46.8 17.64 47.4-17.03v-40.44l14.81-6.081-15.4-16.12-18.37-6.385 0.2962 5.816 11.26 3.914-39.7 15.06-39.1-14.45 11.26-4.257v-6.385l-19.25 7.906-15.11 15.2 47.4 17.64 14.81-15.2 14.81 15.2 27.25-10.03 0.2962 34.36-42.06 15.51z" fill="#00aff0" stroke="#fff" stroke-linejoin="round" stroke-width="14.97" style="paint-order:stroke fill markers"/>
   <g transform="translate(.876 13.73)" clip-rule="nonzero" fill-rule="nonzero" shape-rendering="auto">
    <path d="m65.98-2.006c-1.721-0.6463-3.62-0.6366-5.334 0.02734l-24.55 9.506c-2.847 1.102-4.739 3.824-4.781 6.877l-0.4199 31.07c-0.04189 3.119 1.856 5.938 4.762 7.072l24.51 9.568c1.725 0.6734 3.639 0.6831 5.371 0.02734l25.16-9.525c2.907-1.101 4.831-3.884 4.834-6.992l0.02539-31.33c-0.0045-0.02281-9e-3 -0.0456-0.01367-0.06836-0.01033-0.06003-0.0214-0.1199-0.0332-0.1797-0.07541-1.274-0.4755-2.508-1.162-3.584-0.1371-0.2433-0.2877-0.4787-0.4512-0.7051-0.7878-1.03-1.83-1.838-3.023-2.344-0.05601-0.04443-0.1127-0.08805-0.1699-0.1309z" color="#000000" fill="#fff" style="-inkscape-stroke:none"/>
    <path d="m84.01 15.66 4.07-1.372-0.0244 31.33-25.16 9.524-24.51-9.568 0.4189-31.07 24.55-9.506 24.73 9.284-24.86 10.13-0.1594 25.81 20.95-7.963z" color="#000000" fill="#00aff0" style="-inkscape-stroke:none"/>
   </g>
   <path d="m69 129.4-1.205-37.64 9.746 5.898 25.62-9.329 0.438 30.13z" fill="#fff"/>
  </g>
 </g>
 <text x="36.414696" y="133.49147" fill="#000000" font-family="sans-serif" font-size="13.33px" letter-spacing="0px" word-spacing="0px" style="line-height:1.25" xml:space="preserve"><tspan x="36.414696" y="133.49147">Skype.exe</tspan></text>
</svg>
