<svg version="1.1" viewBox="0 0 284.3 89.04" xmlns="http://www.w3.org/2000/svg">
 <g transform="matrix(1.25 0 0 -1.25 -1107 512.1)" stroke-linecap="round" stroke-linejoin="round">
  <g>
   <rect transform="scale(1,-1)" x="899.8" y="-401.5" width="201.5" height="15.68" ry="6.979" fill="#fff" style="paint-order:markers stroke fill"/>
   <rect transform="scale(1,-1)" x="899.8" y="-385.7" width="201.5" height="15.55" ry="6.923" fill="#084fc9" style="paint-order:markers stroke fill"/>
   <rect transform="scale(1,-1)" x="899.8" y="-370" width="201.5" height="14.93" ry="6.643" fill="#c92d20" style="paint-order:markers stroke fill"/>
   <g transform="translate(-1.067 -.1465)" fill="#00a9e9">
    <path transform="scale(1,-1)" d="m920.3-359.6a10.25 10.05 0 0 1-10.25 10.05 10.25 10.05 0 0 1-10.25-10.05 10.25 10.05 0 0 1 10.25-10.05 10.25 10.05 0 0 1 10.25 10.05z" stroke-width="1.095"/>
    <path transform="scale(1,-1)" d="m1095-360a10.25 10.05 0 0 1-10.25 10.05 10.25 10.05 0 0 1-10.25-10.05 10.25 10.05 0 0 1 10.25-10.05 10.25 10.05 0 0 1 10.25 10.05z" stroke-width="1.095"/>
    <path transform="scale(1,-1)" d="m921.3-391.5a6.335 6.335 0 0 1-6.335 6.335 6.335 6.335 0 0 1-6.335-6.335 6.335 6.335 0 0 1 6.335-6.335 6.335 6.335 0 0 1 6.335 6.335z" stroke-width=".6836"/>
    <path transform="scale(1,-1)" d="m947.4-397a8.296 8.2 0 0 1-8.296 8.2 8.296 8.2 0 0 1-8.296-8.2 8.296 8.2 0 0 1 8.296-8.2 8.296 8.2 0 0 1 8.296 8.2z" stroke-width=".89"/>
    <path transform="scale(1,-1)" d="m938.8-351.8a7.156 7.031 0 0 1-7.156 7.031 7.156 7.031 0 0 1-7.156-7.031 7.156 7.031 0 0 1 7.156-7.031 7.156 7.031 0 0 1 7.156 7.031z" stroke-width=".7654"/>
    <path transform="scale(1,-1)" d="m974.2-349.4a7.282 7.156 0 0 1-7.282 7.156 7.282 7.156 0 0 1-7.282-7.156 7.282 7.156 0 0 1 7.282-7.156 7.282 7.156 0 0 1 7.282 7.156z" stroke-width=".7789"/>
    <path transform="scale(1,-1)" d="m1011-346.4a7.282 7.156 0 0 1-7.282 7.156 7.282 7.156 0 0 1-7.282-7.156 7.282 7.156 0 0 1 7.282-7.156 7.282 7.156 0 0 1 7.282 7.156z" stroke-width=".7789"/>
    <path transform="scale(1,-1)" d="m1054-351.2a8.286 8.286 0 0 1-8.286 8.286 8.286 8.286 0 0 1-8.286-8.286 8.286 8.286 0 0 1 8.286-8.286 8.286 8.286 0 0 1 8.286 8.286z" stroke-width=".8941"/>
    <path d="m1034 394.6a3.766 3.641 0 0 0-3.766-3.641 3.766 3.641 0 0 0-3.766 3.641 3.766 3.641 0 0 0 3.766 3.641 3.766 3.641 0 0 0 3.766-3.641z" stroke-width=".3996"/>
    <path transform="scale(1,-1)" d="m997.5-389.4a3.648 3.641 0 0 1-3.648 3.641 3.648 3.641 0 0 1-3.648-3.641 3.648 3.641 0 0 1 3.648-3.641 3.648 3.641 0 0 1 3.648 3.641z" stroke-width=".3933"/>
    <path transform="scale(1,-1)" d="m1066-395.1a5.022 4.99 0 0 1-5.022 4.99 5.022 4.99 0 0 1-5.022-4.99 5.022 4.99 0 0 1 5.022-4.99 5.022 4.99 0 0 1 5.022 4.99z" stroke-width=".5402"/>
    <g stroke-width=".5148">
     <path transform="scale(1,-1)" d="m1014-392.9a4.771 4.771 0 0 1-4.771 4.771 4.771 4.771 0 0 1-4.771-4.771 4.771 4.771 0 0 1 4.771-4.771 4.771 4.771 0 0 1 4.771 4.771z"/>
     <path transform="scale(1,-1)" d="m1070-347a4.771 4.771 0 0 1-4.771 4.771 4.771 4.771 0 0 1-4.771-4.771 4.771 4.771 0 0 1 4.771-4.771 4.771 4.771 0 0 1 4.771 4.771z"/>
     <path transform="scale(1,-1)" d="m1046-402.7a4.771 4.771 0 0 1-4.771 4.771 4.771 4.771 0 0 1-4.771-4.771 4.771 4.771 0 0 1 4.771-4.771 4.771 4.771 0 0 1 4.771 4.771z"/>
     <path transform="scale(1,-1)" d="m1022-403.2a4.771 4.771 0 0 1-4.771 4.771 4.771 4.771 0 0 1-4.771-4.771 4.771 4.771 0 0 1 4.771-4.771 4.771 4.771 0 0 1 4.771 4.771z"/>
     <path transform="scale(1,-1)" d="m1099-387.3a4.771 4.771 0 0 1-4.771 4.771 4.771 4.771 0 0 1-4.771-4.771 4.771 4.771 0 0 1 4.771-4.771 4.771 4.771 0 0 1 4.771 4.771z"/>
     <path transform="scale(1,-1)" d="m928.8-377.1a4.771 4.771 0 0 1-4.771 4.771 4.771 4.771 0 0 1-4.771-4.771 4.771 4.771 0 0 1 4.771-4.771 4.771 4.771 0 0 1 4.771 4.771z"/>
     <path transform="scale(1,-1)" d="m961.6-397.7a4.771 4.771 0 0 1-4.771 4.771 4.771 4.771 0 0 1-4.771-4.771 4.771 4.771 0 0 1 4.771-4.771 4.771 4.771 0 0 1 4.771 4.771z"/>
     <path transform="scale(1,-1)" d="m1082-379.8a4.771 4.771 0 0 1-4.771 4.771 4.771 4.771 0 0 1-4.771-4.771 4.771 4.771 0 0 1 4.771-4.771 4.771 4.771 0 0 1 4.771 4.771z"/>
    </g>
    <path transform="scale(1,-1)" d="m953.5-353.9a3.892 4.017 0 0 1-3.892 4.017 3.892 4.017 0 0 1-3.892-4.017 3.892 4.017 0 0 1 3.892-4.017 3.892 4.017 0 0 1 3.892 4.017z" stroke-width=".4267"/>
    <path transform="scale(1,-1)" d="m987.6-352a3.892 4.017 0 0 1-3.892 4.017 3.892 4.017 0 0 1-3.892-4.017 3.892 4.017 0 0 1 3.892-4.017 3.892 4.017 0 0 1 3.892 4.017z" stroke-width=".4267"/>
    <path d="m1029 351.7a4.158 4.017 0 0 0-4.158-4.017 4.158 4.017 0 0 0-4.158 4.017 4.158 4.017 0 0 0 4.158 4.017 4.158 4.017 0 0 0 4.158-4.017z" stroke-width=".441"/>
    <path d="m993.4 400.7a5.336 5.273 0 0 0-5.336-5.273 5.336 5.273 0 0 0-5.336 5.273 5.336 5.273 0 0 0 5.336 5.273 5.336 5.273 0 0 0 5.336-5.273z" stroke-width=".5724"/>
   </g>
  </g>
  <g transform="matrix(.7198 0 0 -.7069 960 532.3)" fill="#fff" stroke="#007dac" stroke-width="6.9" style="paint-order:stroke fill markers" aria-label="Not Official Site">
   <g stroke="none" stroke-width="11" aria-label="SKYPE">
    <path d="m-46.35 246.5 206.4-0.1776c2.938-3e-3 5.303 2.08 5.303 4.664v13.94c0 2.584-2.365 4.661-5.303 4.664l-206.4 0.1776c-2.938 3e-3 -5.303-2.08-5.303-4.664v-13.94c0-2.584 2.365-4.661 5.303-4.664z" fill="#00a9e9"/>
    <text transform="scale(.991 1.009)" x="-47.73457" y="260.95773" fill="#ffffff" font-family="sans-serif" font-size="14.58px" font-weight="bold" stroke-width="12.34" style="line-height:1.25" xml:space="preserve"><tspan x="-47.73457" y="260.95773" fill="#ffffff" font-family="Arial" font-size="14.58px" font-weight="900" stroke="none" stroke-width="13.84">НЕОФИЦИАЛЬНЫЙ САЙТ</tspan></text>
   </g>
  </g>
  <path d="m1086 396.5a8.296 8.452 0 0 0-8.296-8.452 8.296 8.452 0 0 0-8.296 8.452 8.296 8.452 0 0 0 8.296 8.452 8.296 8.452 0 0 0 8.296-8.452z" fill="#00a9e9" stroke-width=".9035"/>
  <g transform="matrix(1.102 0 0 1.118 -105.5 -41.87)">
   <g transform="matrix(1.097 0 0 -.9946 889.1 556.6)" stroke="#007dac" stroke-width="7.512" style="paint-order:stroke fill markers">
    <g transform="translate(-76.75 .9)" stroke="none">
     <path transform="matrix(.662 0 0 .7195 82.34 152.6)" d="m75.76 9.18c-0.8626-0.00817-1.724 0.02308-2.582 0.0918h-2e-3c-5.749 0.464-11.49 3.144-15.31 8.244-1.986 2.408-3.628 5.209-5.926 7.26-2.386 2.564-1.346 6.822 1.012 8.867 1.769 2.404 3.52 4.865 5.719 6.773-2.21-0.6556-4.205 2.204-4.336 4.582-0.0031 3.83-0.07195 7.67 0.03711 11.5 0.2603 2.731 2.462 4.274 4.553 4.961 6.448 2.871 13.6 3.672 20.41 2.291 3.916-0.8354 7.595-2.938 10.49-6.07 0.2623 2.325 2.597 6.322 7.307 6.16h9.127c3.414-3.2e-4 6.311-2.112 7.408-4.949l1.012 1.498c1.443 2.139 4.006 3.449 6.742 3.451h10.4c3.206-0.0014 5.824-1.91 7.062-4.393 1.245 2.562 4.059 4.393 7.256 4.393h9.061c4.318-4.04e-4 7.94-3.331 7.941-7.303l3.879 2e-3c4.4e-4 3.972 3.622 7.303 7.939 7.303h9.121c4.318-4.03e-4 7.938-3.331 7.939-7.303v-7.148c3.425-0.3084 6.708-0.9143 9.627-2.373 0.0168-0.0042 0.0342-0.0075 0.0508-0.01172 5e-3 -0.0028 0.0108-5e-3 0.0156-0.0078 1e-3 -6.12e-4 8.8e-4 -0.0039 2e-3 -0.0039 1.228-0.6128 2.391-1.33 3.469-2.143v11.69c4.6e-4 4.328 3.744 7.514 7.717 7.514h24.83c3.973-3.47e-4 7.719-3.186 7.719-7.514v-6.951c-2.5e-4 -2.375-1.175-4.336-2.85-5.686 1.025-1.253 1.764-2.759 1.764-4.543v-6.893c-1.4e-4 -1.361-0.4603-2.542-1.092-3.613 1.299-1.319 2.176-3.071 2.176-5.115v-6.895c-4.7e-4 -4.328-3.744-7.514-7.717-7.514h-24.84c-3.149 3.058e-4 -6.146 2.006-7.256 4.992-4.529-3.575-10.54-4.781-16.91-4.781l-13.77 0.00195c-0.962 9.72e-5 -1.886 0.1734-2.746 0.4746-0.8344-0.3028-1.738-0.4745-2.693-0.4746h-9.85c-2.98 6.809e-4 -5.738 1.556-7.084 4.002h4e-3l-1.896 3.443-1.877-3.426c-1.341-2.452-4.096-4.016-7.08-4.02h-9.924c-0.0201 0-0.0405 0.00195-0.0605 0.00195-0.0183-1.39e-4 -0.0345-0.00195-0.0527-0.00195h-10.16c-2.415 4.447e-4 -4.711 1.017-6.215 2.756l-4e-3 0.0039-1.709 1.979c-1.156-2.735-4.024-4.738-7.359-4.738h-9.127c-1.957 1.978e-4 -5.623 0.6182-6.9 3.695-1.111-0.7302-2.373-1.264-3.461-1.822-3.511-1.447-7.26-2.201-11-2.236z" fill="#00a9e9" stroke-width="7.433" style="-inkscape-stroke:none"/>
     <g transform="translate(-2.648)" fill="#fff">
      <path d="m149.3 163.2a1.5 1.5 0 0 0-1.5 1.5v28.56a1.5 1.5 0 0 0 1.5 1.5h6.041a1.5 1.5 0 0 0 1.5-1.5v-9.432l0.6328-0.4551 6.633 10.68a1.5 1.5 0 0 0 1.273 0.709h6.881a1.5 1.5 0 0 0 1.268-2.301l-9.475-15.02 9.305-11.81a1.5 1.5 0 0 0-1.178-2.428h-6.721a1.5 1.5 0 0 0-1.174 0.5664l-7.445 9.373v-8.439a1.5 1.5 0 0 0-1.5-1.5z" color="#000000" style="-inkscape-stroke:none"/>
      <path d="m172.2 163.2a1.5 1.5 0 0 0-1.322 2.209l9.303 17.31v10.54a1.5 1.5 0 0 0 1.5 1.5h6a1.5 1.5 0 0 0 1.5-1.5v-10.74l9.297-17.1a1.5 1.5 0 0 0-1.318-2.217h-6.52a1.5 1.5 0 0 0-1.338 0.8223l-4.617 9.111-4.586-9.107a1.5 1.5 0 0 0-1.338-0.8262z" color="#000000" style="-inkscape-stroke:none"/>
      <path d="m200.8 163.2a1.5 1.5 0 0 0-1.5 1.5v28.56a1.5 1.5 0 0 0 1.5 1.5h6.039a1.5 1.5 0 0 0 1.5-1.5v-8.66h1.1c2.928 0 5.354-0.449 7.273-1.502h2e-3c1.849-1 3.277-2.403 4.117-4.148 0.7922-1.645 1.188-3.444 1.188-5.33 0-3.077-1.013-5.743-3.037-7.613-2.076-1.97-5.171-2.807-9.062-2.807zm7.539 7.959h1.26c1.383 0 2.191 0.3046 2.617 0.6738s0.6836 0.8881 0.6836 1.986c0 1.186-0.2764 1.675-0.8672 2.08v2e-3c-0.6546 0.4398-1.687 0.7383-3.193 0.7383h-0.5z" color="#000000" style="-inkscape-stroke:none"/>
     </g>
    </g>
   </g>
   <g transform="matrix(.7198 0 0 -.7069 923.9 574.7)" style="paint-order:stroke fill markers">
    <path d="m174.9 256.6a2.286 2.111 0 0 0-2.285 2.111v40.2a2.286 2.111 0 0 0 2.285 2.111h25.05a2.286 2.111 0 0 0 2.285-2.111v-7.037a2.286 2.111 0 0 0-2.285-2.111h-13.56v-6.138h12.47a2.286 2.111 0 0 0 2.285-2.111v-6.979a2.286 2.111 0 0 0-2.285-2.111h-12.47v-4.618h13.56a2.286 2.111 0 0 0 2.285-2.111v-6.979a2.286 2.111 0 0 0-2.285-2.111z" color="#000000" fill="#fff" style="-inkscape-stroke:none"/>
   </g>
   <g transform="matrix(2.25 0 0 -2.555 684.9 406.9)" stroke="#fff" stroke-width="4.189" style="paint-order:stroke fill markers" aria-label="S">
    <g stroke="none">
     <path d="m123.8 13.76c-1.249 0.9993-1.693 1.979-2.954 2.96-1.637 1.074-3.661 1.071-5.515 0.857-0.9612-0.1366-1.897-0.4377-2.797-0.813v-2.868c0.3603-0.09525 0.5841 0.2322 0.87 0.4013 2.027 0.6328 2.515 1.202 4.62 0.78 0.5001-0.1462 1.003-0.6182 0.8431-1.221-0.2579-0.796-1.172-0.9016-1.845-1.062-1.436-0.2937-2.303-0.4762-3.599-1.425-0.938-0.6868-1.575-1.755-2.102-2.193 1.211-0.9511 1.702-2.02 2.927-2.95 1.827-1.164 4.132-1.159 6.114-0.6409 0.5505 0.1438 1.034 0.347 1.672 0.7036v2.564c0 0.4122-0.843-0.2051-1.327-0.3405-1.33-0.6656-2.931-0.988-4.345-0.4287-0.5974 0.2017-0.8781 0.8664-0.3473 1.335 0.7599 0.5215 1.709 0.5419 2.568 0.7741 0.6287 0.144 1.259 0.207 1.829 0.4864 0.5708 0.2793 1.048 0.6756 1.499 1.068 0.7129 0.6197 0.9522 1.329 1.889 2.013z" color="#000000" fill="#fff" stroke-width="3.02" style="-inkscape-stroke:none"/>
    </g>
   </g>
  </g>
 </g>
</svg>
