<svg version="1.1" viewBox="0 0 182.4 53.66" xmlns="http://www.w3.org/2000/svg">
 <g transform="matrix(1.839 0 0 1.84 124.7 2.793)" fill="#00aff0">
  <g fill="#00aff0">
   <path d="m-18.18 3.802a0.024 0.024 0 0 0-0.012 0l-0.012-1e-3v1e-3c-5.156 0.063-9.334 4.274-9.334 9.445 0 5.172 4.178 9.381 9.334 9.445v1e-3l0.012-1e-3 0.012 1e-3v-1e-3c5.157-0.062 9.334-4.271 9.334-9.445 1e-3 -5.169-4.177-9.38-9.334-9.445z" color="#000000" style="-inkscape-stroke:none"/>
   <path d="m-49.85 3.966a0.024 0.024 0 0 0-0.012 0l-0.012-1e-3v1e-3c-5.156 0.063-9.334 4.274-9.334 9.445 0 5.172 4.178 9.381 9.334 9.445v1e-3l0.012-1e-3 0.012 1e-3v-1e-3c5.157-0.062 9.334-4.271 9.334-9.445 1e-3 -5.169-4.177-9.38-9.334-9.445z" color="#000000" style="-inkscape-stroke:none"/>
   <path d="m13.38 3.803a0.024 0.024 0 0 0-0.012 0l-0.012-1e-3v1e-3c-5.156 0.063-9.334 4.274-9.334 9.445 0 5.172 4.178 9.381 9.334 9.445v1e-3l0.012-1e-3 0.012 1e-3v-1e-3c5.157-0.062 9.334-4.271 9.334-9.445 1e-3 -5.169-4.177-9.38-9.334-9.445z" color="#000000" style="-inkscape-stroke:none"/>
  </g>
  <path d="m-21.31-0.00214c-1.741-0.05076-2.776 1.449-3.397 2.837-0.8373 1.179-2.377 0.801-3.487 1.416-1.25 0.7529-1.949 2.431-1.376 3.815 0.358 1.501-1.08 2.459-1.812 3.534-0.8347 1.444-0.3353 3.357 0.9527 4.364 0.8315 0.7884 1.149 1.992 0.6819 3.054-0.2548 1.793 1.297 3.679 3.152 3.561 1.383 0.1354 2.238 1.292 2.686 2.484 0.9491 1.373 3.1 1.862 4.43 0.7582 1.121-0.7268 2.39-0.2249 3.38 0.433 1.519 0.5373 3.498-0.2549 3.964-1.857 0.5656-1.337 1.96-1.888 3.309-1.921 1.546-0.4628 2.689-2.281 2.096-3.851-0.4341-1.462 0.5855-2.604 1.576-3.496 1.082-1.439 0.6558-3.689-0.8138-4.702-1.229-1.024-0.6052-2.641-0.6377-3.955-0.2626-1.466-1.645-2.744-3.177-2.627-1.579-0.1296-2.24-1.687-2.933-2.844-1.125-1.198-3.156-1.337-4.403-0.2508-1.247 0.68-2.405-0.2987-3.52-0.6959-0.2202-0.04411-0.4454-0.06223-0.6697-0.05636zm3.149 3.036c4.414-0.02093 8.595 3.147 9.717 7.419 1.305 4.365-0.7597 9.448-4.781 11.61-3.104 1.797-7.154 1.765-10.19-0.1579-3.915-2.362-5.906-7.523-4.356-11.87 1.316-4.069 5.295-7.08 9.612-7.009z"/>
  <g transform="translate(-2.175)">
   <path d="m12.4-0.00214c-1.741-0.05076-2.776 1.449-3.397 2.837-0.8373 1.179-2.377 0.801-3.487 1.416-1.25 0.7529-1.949 2.431-1.376 3.815 0.358 1.501-1.08 2.459-1.812 3.534-0.8347 1.444-0.3353 3.357 0.9527 4.364 0.8315 0.7884 1.149 1.992 0.6819 3.054-0.2548 1.793 1.297 3.679 3.152 3.561 1.383 0.1354 2.238 1.292 2.686 2.484 0.9491 1.373 3.1 1.862 4.43 0.7582 1.121-0.7268 2.39-0.2249 3.38 0.433 1.519 0.5373 3.498-0.2549 3.964-1.857 0.5656-1.337 1.96-1.888 3.309-1.921 1.546-0.4628 2.689-2.281 2.096-3.851-0.4341-1.462 0.5855-2.604 1.576-3.496 1.082-1.439 0.6558-3.689-0.8138-4.702-1.229-1.024-0.6052-2.641-0.6377-3.955-0.2626-1.466-1.645-2.744-3.177-2.627-1.579-0.1296-2.24-1.687-2.933-2.844-1.125-1.198-3.156-1.337-4.403-0.2508-1.247 0.68-2.405-0.2987-3.52-0.6959-0.2202-0.04411-0.4454-0.06223-0.6697-0.05636zm3.149 3.036c4.414-0.02093 8.595 3.147 9.717 7.419 1.305 4.365-0.7597 9.448-4.781 11.61-3.104 1.797-7.154 1.765-10.19-0.1579-3.915-2.362-5.906-7.523-4.356-11.87 1.316-4.069 5.295-7.08 9.612-7.009z"/>
   <path d="m15.73 20.86c-0.6511-0.2816-5.857-2.833-5.908-12.16l5.909-1.836 5.909 1.836c-0.05147 9.306-5.258 11.88-5.909 12.16z" fill="#fff"/>
   <path d="m18.95 10.71-3.836 3.887-1.822-1.812-0.8047 0.8066 2.635 2.621 4.641-4.701z" color="#000000" stroke-miterlimit="10" style="-inkscape-stroke:none"/>
  </g>
 </g>
 <g transform="matrix(1.841 0 0 1.836 62.94 5.802)">
  <path d="m10.67 9.968h1.859c0.342 0 0.62 0.211 0.62 0.472v5.047c0 0.26-0.278 0.473-0.62 0.473h-1.859c-0.456 0-0.825-0.283-0.825-0.631v-4.731c0-0.348 0.37-0.63 0.825-0.63z" fill="#fff"/>
  <path d="m10.26 9.773c-0.3201 0-0.6055 0.237-0.6055 0.5566v5.268c0 0.3196 0.2853 0.5566 0.6055 0.5566h2.479c0.3201 0 0.6055-0.237 0.6055-0.5566v-5.268c0-0.3196-0.2853-0.5566-0.6055-0.5566zm0 0.3887h2.479c0.1361 0 0.2188 0.08639 0.2188 0.168v5.268c0 0.08158-0.08269 0.168-0.2188 0.168h-2.479c-0.1361 0-0.2188-0.08638-0.2188-0.168v-5.268c0-0.08158 0.08269-0.168 0.2188-0.168z" color="#000000" fill="#00aff0" stroke-miterlimit="10" style="-inkscape-stroke:none"/>
  <path d="m20.58 14.51c0.6255 0.04242 1.254-0.6212 0.9608-1.238-0.06119-0.2556-0.5681-0.4254-0.08654-0.4784 0.5593-0.2096 0.7767-1.005 0.32-1.427-0.2034-0.2769-0.8204-0.2247-0.3453-0.5574 0.3731-0.4015 0.1652-1.061-0.3222-1.258-1.18-0.2276-2.304-0.1266-3.552-0.1266 0.3121-1.257-0.35-4.3-1.895-3.541-0.253 1.474-0.198 3.988-1.776 4.518-0.2701 0.161-0.865-0.07078-0.7363 0.3934v4.259c0.7353 0.8388 1.922 0.9358 2.965 0.908 2.599-0.1084 4.05 0.3672 4.686-0.7969 0.1203-0.174-0.09745-0.4948-0.2174-0.6558z" color="#000000" fill="#fff" style="-inkscape-stroke:none"/>
  <path d="m15.57 5.709c-0.05613 0.02769-0.09542 0.0808-0.1055 0.1426-0.13 0.7574-0.18 1.747-0.3887 2.6-0.2087 0.8528-0.5571 1.532-1.258 1.768-0.01288 0.0039-0.02532 0.0091-0.03711 0.01563-0.04623 0.02756-0.2436 0.03434-0.4434 0.05859-0.09988 0.01213-0.2179 0.03059-0.3145 0.1367-0.09652 0.1061-0.1077 0.2689-0.06641 0.418l-0.0078-0.05273v4.26c3.92e-4 0.04683 0.01774 0.09193 0.04883 0.127 0.7985 0.9109 2.056 1.003 3.115 0.9746 0.0013 1.3e-5 0.0026 1.3e-5 0.0039 0 1.286-0.05365 2.289 0.03753 3.08-0.0039 0.3957-0.02072 0.7427-0.07463 1.043-0.2109 0.545-0.2949 0.9518-0.6686 0.7129-1.188-0.03238-0.07267-0.07076-0.1172-0.1094-0.1777 0.2607-0.06063 0.5362-0.1124 0.7051-0.3145 0.2329-0.2787 0.3305-0.6802 0.1602-1.057-0.04283-0.1368-0.1096-0.1851-0.1777-0.2461 0.6733-0.2695 0.9202-1.196 0.375-1.719-0.1355-0.1668-0.2956-0.2157-0.3984-0.2559 0.01494-0.01548-0.0025 0.0066 0.0293-0.01563 0.01069-0.0081 0.0205-0.01724 0.0293-0.02734 0.4695-0.5052 0.2182-1.324-0.3906-1.57-0.01202-0.00448-0.02445-0.00775-0.03711-0.00977-1.157-0.2233-2.251-0.1332-3.424-0.125 0.1142-0.6918 0.07175-1.62-0.2344-2.408-0.168-0.4325-0.3964-0.8121-0.7188-1.045-0.3224-0.2328-0.7543-0.289-1.191-0.07422zm0.2559 0.3516c0.2811-0.1092 0.5064-0.1092 0.709 0.03711 0.2265 0.1636 0.4323 0.4806 0.584 0.8711 0.3034 0.7811 0.3837 1.848 0.2441 2.41-0.0302 0.1219 0.06188 0.2399 0.1875 0.2402 1.249 0 2.352-0.09206 3.49 0.123 0.3554 0.1553 0.5151 0.6419 0.2422 0.9355l0.03125-0.02734c-0.133 0.09311-0.2353 0.1604-0.2559 0.3242-0.01026 0.08193 0.02773 0.1683 0.07031 0.2148 0.04258 0.04651 0.08534 0.07097 0.125 0.0918 0.1587 0.08329 0.3184 0.1407 0.3613 0.1992 0.0068 0.0105 0.0147 0.02032 0.02344 0.0293 0.3447 0.3185 0.1671 0.9398-0.2559 1.1-4.91e-4 1.85e-4 4.91e-4 0.0018 0 2e-3 -0.04501 0.0064-0.09064 0.01126-0.1289 0.02344-0.05224 0.01662-0.1104 0.03867-0.1602 0.1094-0.04971 0.07071-0.0447 0.178-0.02148 0.2324 0.02322 0.05444 0.04914 0.08393 0.07422 0.1113 0.1003 0.1096 0.1965 0.209 0.2012 0.2285 0.0031 0.01347 0.0077 0.02656 0.01367 0.03906 0.3261 0.5981-0.2484 0.9303-0.7715 0.9609-0.04251 0.0071-0.0756 6.8e-4 -0.1191 0.03125-0.1215 0.08614-0.06071 0.2425 0.0097 0.2871 0.1035 0.1092 0.1949 0.2907 0.1543 0.4199-0.04742 0.2547-0.3428 0.4461-0.5547 0.5352-0.2319 0.1053-0.5309 0.1563-0.9023 0.1758-0.7419 0.03884-1.764-0.05236-3.074 2e-3 -1.007 0.02685-2.09-0.08716-2.766-0.8145v-4.158c-3.33e-4 -0.0172-3e-3 -0.03428-0.0078-0.05078-0.02302-0.08303-0.0068-0.06674-0.01953-0.05274-0.01274 0.014 0.0077-0.0056 0.07422-0.01367 0.1287-0.01562 0.357 0.01271 0.5742-0.1055 0.8616-0.3015 1.275-1.132 1.494-2.029 0.2093-0.8554 0.2638-1.776 0.373-2.482z" color="#000000" fill="#00aff0" stroke-linejoin="round" stroke-miterlimit="10" style="-inkscape-stroke:none"/>
 </g>
 <path d="m27.24 3.011c-3.201-0.09339-5.106 2.666-6.248 5.22-1.54 2.17-4.372 1.474-6.412 2.606-2.299 1.385-3.584 4.474-2.531 7.02 0.6583 2.761-1.986 4.524-3.332 6.502-1.535 2.658-0.6166 6.178 1.752 8.03 1.529 1.451 2.113 3.666 1.254 5.619-0.4686 3.3 2.385 6.769 5.797 6.552 2.544 0.2491 4.116 2.378 4.939 4.57 1.745 2.526 5.7 3.425 8.146 1.395 2.061-1.337 4.396-0.4138 6.216 0.7966 2.793 0.9886 6.434-0.4691 7.29-3.417 1.04-2.46 3.604-3.474 6.084-3.534 2.842-0.8515 4.945-4.198 3.854-7.086-0.7983-2.691 1.077-4.791 2.899-6.433 1.99-2.648 1.206-6.789-1.497-8.651-2.261-1.884-1.113-4.859-1.173-7.276-0.483-2.697-3.024-5.049-5.842-4.835-2.904-0.2385-4.12-3.103-5.395-5.232-2.069-2.204-5.804-2.461-8.097-0.4616-2.293 1.251-4.423-0.5495-6.474-1.28-0.4049-0.08116-0.8191-0.1145-1.232-0.1037zm5.791 5.586c8.117-0.03851 15.81 5.79 17.87 13.65 2.399 8.031-1.397 17.38-8.792 21.37-5.708 3.306-13.16 3.247-18.74-0.2905-7.199-4.345-10.86-13.84-8.01-21.83 2.421-7.487 9.737-13.03 17.68-12.9z" fill="#00aff0" stroke-width="1.84"/>
 <g transform="matrix(1.835 0 0 1.837 4.718 5.757)">
  <path d="m13.05 14.71-0.827 2.593h6.263l-0.827-2.593z" fill="#fff"/>
  <path d="m13.23 16.57 0.36-1.13h3.53l0.36 1.13z" fill="#00aff0"/>
  <path d="m19.38 7.745c-0.8517-0.1233-1.703-0.2467-2.555-0.37-0.3968-0.7884-0.7765-1.587-1.184-2.369-0.1936-0.2646-0.6067-0.1216-0.674 0.175-0.363 0.7313-0.7259 1.463-1.089 2.194-0.8851 0.1374-1.779 0.2361-2.658 0.3984-0.4261 0.2321-0.09126 0.6542 0.1721 0.8532 0.5255 0.5098 1.051 1.02 1.576 1.529-0.1419 0.881-0.3234 1.758-0.4401 2.642 0.0924 0.4754 0.5988 0.2894 0.8712 0.1007 0.1209-0.01931 0.4579-0.3481 0.3803-0.08311-0.05116 0.387-0.1023 0.774-0.1535 1.161-0.3395 0.02315-0.6959-0.04996-1.024 0.0439-0.2582 0.1795-0.2434 0.5434-0.3659 0.8101-0.2911 0.9315-0.6043 1.858-0.8816 2.792-0.03629 0.3053 0.294 0.4575 0.5534 0.4045 2.39-0.0049 4.781 0.0097 7.17-0.0073 0.4045-0.1131 0.2489-0.5522 0.1434-0.8302-0.327-1.008-0.6354-2.022-0.974-3.025-0.1917-0.303-0.5936-0.1482-0.8885-0.1862-0.2578 0.06732-0.3349-0.07191-0.3232-0.3126-0.04369-0.3258-0.08738-0.6516-0.1311-0.9774 0.3059 0.1335 0.5817 0.3612 0.9099 0.427 0.2991 5e-3 0.4297-0.3359 0.3302-0.5824-0.1367-0.7915-0.2734-1.583-0.4102-2.375 0.63-0.6167 1.274-1.221 1.895-1.845 0.1569-0.2116 0.01211-0.5405-0.2501-0.5676zm-1.723 6.961c0.2757 0.8633 0.5513 1.727 0.827 2.59h-6.263c0.276-0.8633 0.552-1.727 0.828-2.59z" fill="#00aff0"/>
  <path d="m15.38 6.075-0.9747 1.864-2.237 0.4196 0.5681 0.548 2.558-0.008374c0.4219 0.08604 0.2997 0.8056-0.1385 0.7188l-1.681 0.00556c-0.1983 0.05445-0.1425 0.3663 0.02318 0.3656l1.081-0.00411c0.4676-0.03503 0.3889 0.643-0.02495 0.5783-0.4272 0.06027-0.9308-0.1023-0.9733 0.3686-0.06038 0.3233-0.08918 0.6512-0.1738 0.9706-0.03171 0.3175 0.3511-0.03108 0.4977-0.09938 0.4584-0.2435 0.9133-0.4955 1.389-0.7049l0.8732 0.3723 1.152 0.6018c-0.109-0.7012-0.2656-1.395-0.3438-2.101l1.563-1.614-2.117-0.3195z" fill="#fff"/>
  <path d="m14.37 13.97h1.97l-0.228-1.704-0.757-0.394-0.758 0.397z" fill="#fff"/>
 </g>
</svg>
