<svg width="120" height="120" version="1.1" viewBox="0 0 120 120" xmlns="http://www.w3.org/2000/svg">
 <g transform="translate(-253 24.34)">
  <path d="m369.4 35.49a55.91 57.61 0 0 1-55.91 57.61 55.91 57.61 0 0 1-55.91-57.61 55.91 57.61 0 0 1 55.91-57.61 55.91 57.61 0 0 1 55.91 57.61z" fill="#00aff0" stroke-linecap="round" stroke-linejoin="round" stroke-width="3.475"/>
  <g transform="matrix(2.986,0,0,2.937,-7.439,-6.413)">
   <g stroke-linecap="round" stroke-linejoin="round">
    <path d="m110.8-0.7559c-1.373-1e-8 -2.833 0.5053-3.828 1.58-0.4326 0.4674-0.7127 1.031-0.9414 1.615-0.1848-0.1114-0.3173-0.3064-0.5059-0.4043-2.094-1.087-4.601-1.615-7.146-1.615-2.385 0-4.976 0.5408-7.172 2.057-2.195 1.516-3.852 4.21-3.852 7.547 0 2.651 0.9133 4.905 2.436 6.395 0.1309 0.1281 0.2956 0.1798 0.4316 0.2969-0.7333 0.311-1.391 0.7462-1.832 1.328-0.786 1.037-1.035 2.213-1.035 3.314 0 2.67 1.776 4.798 3.965 6.125 2.189 1.327 4.958 2.053 7.959 2.053 2.509 0 5.127-0.8072 7.246-2.33 0.1554 0.2457 0.2366 0.5328 0.4375 0.75 0.9945 1.075 2.455 1.582 3.828 1.582 1.373 0 2.833-0.505 3.828-1.58 0.995-1.075 1.42-2.536 1.42-4.025v-0.6055l1.633 3.467c0.6509 1.074 2.316 2.648 4.629 2.648 0.2132-2.8e-5 0.4254-0.02894 0.6309-0.08594 1.744-0.484 3.249-1.516 3.994-3.051 0.7451-1.535 0.5777-3.333-0.1406-4.791l-4.092-8.301 3.26-3.836c0.302-0.4021 0.5748-0.6666 0.7754-1.063 0.8796-1.63 0.8818-3.14 0.1738-4.793-0.0154-0.03555-0.0317-0.07072-0.0488-0.1055-0.8618-1.765-2.47-2.994-4.545-2.994-1.838 0-3.177 1.079-4.023 2.088-0.0112 0.01355-0.0223 0.02722-0.0332 0.04102l-2.207 2.754v-0.4492c0-1.489-0.4248-2.951-1.42-4.025-0.9837-1.062-2.42-1.559-3.779-1.57-0.0149-0.005359-0.0299-0.01057-0.0449-0.01562z" color="#000000" fill="#009dd7" style="-inkscape-stroke:none;paint-order:stroke fill markers"/>
    <path d="m110.7 1.605c-1.74 0-2.886 1.112-2.886 3.244v12.69c-0.9369-3.087-4.155-4.315-6.92-5.029l-2.413-0.6213c-1.785-0.4414-3.085-0.7954-3.085-2.312 0-1.374 1.3-1.995 3.317-1.995 3.647 0 3.724 2.976 5.982 2.976 1.499 0 2.412-1.336 2.412-2.846 0-2.972-4.44-4.93-8.828-4.93-3.999 0-8.663 1.958-8.663 7.244 0 4.358 2.612 5.913 5.971 6.845l3.405 0.9326c2.048 0.578 3.316 0.8459 3.316 2.487 0 1.331-1.299 2.355-3.36 2.355-4.275 0-4.508-3.998-7.008-3.998-1.62 0-2.325 1.288-2.325 2.711 0 3.196 4.353 5.818 9.564 5.818 3.724 0 7.593-1.8 8.626-5.633v2.389c0 2.133 1.145 3.245 2.885 3.245 1.741 0 2.887-1.112 2.887-3.245v-4.93l2.016-2.002 3.996 8.571c0.4299 0.7091 1.179 1.511 2.611 1.511 2.566-0.712 3.314-2.6 2.366-4.525l-4.776-9.692 4.264-5.017c0.1762-0.2177 0.3298-0.3921 0.462-0.5882 0.4198-0.8411 0.4038-2.137 0.1164-2.808-0.4846-0.9923-1.487-1.67-2.424-1.67-0.8708 0-1.62 0.5353-2.215 1.245l-6.409 7.997v-7.168c0-2.132-1.147-3.244-2.887-3.244z" color="#000000" fill="#fff" stroke-width="4.721" style="-inkscape-stroke:none;paint-order:stroke fill markers"/>
   </g>
  </g>
 </g>
</svg>
